%TF.GenerationSoftware,KiCad,Pcbnew,9.0.3*%
%TF.CreationDate,2026-01-19T14:18:09+02:00*%
%TF.ProjectId,amplifier,616d706c-6966-4696-9572-2e6b69636164,v0.1*%
%TF.SameCoordinates,Original*%
%TF.FileFunction,Drillmap*%
%TF.FilePolarity,Positive*%
%FSLAX45Y45*%
G04 Gerber Fmt 4.5, Leading zero omitted, Abs format (unit mm)*
G04 Created by KiCad (PCBNEW 9.0.3) date 2026-01-19 14:18:09*
%MOMM*%
%LPD*%
G01*
G04 APERTURE LIST*
%ADD10C,0.050000*%
%ADD11C,0.200000*%
%ADD12C,0.430000*%
G04 APERTURE END LIST*
D10*
X26250000Y-5850000D02*
X26250000Y-14850000D01*
X26250000Y-14850000D02*
G75*
G02*
X25750000Y-15350000I-500000J0D01*
G01*
X9250000Y-5850000D02*
G75*
G02*
X9750000Y-5350000I500000J0D01*
G01*
X25750000Y-5350000D02*
G75*
G02*
X26250000Y-5850000I0J-500000D01*
G01*
X9250000Y-14850000D02*
X9250000Y-5850000D01*
X9750000Y-15350000D02*
G75*
G02*
X9250000Y-14850000I0J500000D01*
G01*
X9750000Y-5350000D02*
X25750000Y-5350000D01*
X25750000Y-15350000D02*
X9750000Y-15350000D01*
D11*
D12*
X9685000Y-5785000D02*
X10115000Y-6215000D01*
X10115000Y-5785000D02*
X9685000Y-6215000D01*
X9685000Y-14485000D02*
X10115000Y-14915000D01*
X10115000Y-14485000D02*
X9685000Y-14915000D01*
X25385000Y-5785000D02*
X25815000Y-6215000D01*
X25815000Y-5785000D02*
X25385000Y-6215000D01*
X25385000Y-14485000D02*
X25815000Y-14915000D01*
X25815000Y-14485000D02*
X25385000Y-14915000D01*
D11*
X9508277Y-15663984D02*
X9508277Y-15463984D01*
X9508277Y-15463984D02*
X9555896Y-15463984D01*
X9555896Y-15463984D02*
X9584467Y-15473508D01*
X9584467Y-15473508D02*
X9603515Y-15492555D01*
X9603515Y-15492555D02*
X9613039Y-15511603D01*
X9613039Y-15511603D02*
X9622563Y-15549698D01*
X9622563Y-15549698D02*
X9622563Y-15578269D01*
X9622563Y-15578269D02*
X9613039Y-15616365D01*
X9613039Y-15616365D02*
X9603515Y-15635412D01*
X9603515Y-15635412D02*
X9584467Y-15654460D01*
X9584467Y-15654460D02*
X9555896Y-15663984D01*
X9555896Y-15663984D02*
X9508277Y-15663984D01*
X9708277Y-15663984D02*
X9708277Y-15530650D01*
X9708277Y-15568746D02*
X9717801Y-15549698D01*
X9717801Y-15549698D02*
X9727324Y-15540174D01*
X9727324Y-15540174D02*
X9746372Y-15530650D01*
X9746372Y-15530650D02*
X9765420Y-15530650D01*
X9832086Y-15663984D02*
X9832086Y-15530650D01*
X9832086Y-15463984D02*
X9822563Y-15473508D01*
X9822563Y-15473508D02*
X9832086Y-15483031D01*
X9832086Y-15483031D02*
X9841610Y-15473508D01*
X9841610Y-15473508D02*
X9832086Y-15463984D01*
X9832086Y-15463984D02*
X9832086Y-15483031D01*
X9955896Y-15663984D02*
X9936848Y-15654460D01*
X9936848Y-15654460D02*
X9927324Y-15635412D01*
X9927324Y-15635412D02*
X9927324Y-15463984D01*
X10060658Y-15663984D02*
X10041610Y-15654460D01*
X10041610Y-15654460D02*
X10032086Y-15635412D01*
X10032086Y-15635412D02*
X10032086Y-15463984D01*
X10289229Y-15663984D02*
X10289229Y-15463984D01*
X10289229Y-15463984D02*
X10355896Y-15606841D01*
X10355896Y-15606841D02*
X10422563Y-15463984D01*
X10422563Y-15463984D02*
X10422563Y-15663984D01*
X10603515Y-15663984D02*
X10603515Y-15559222D01*
X10603515Y-15559222D02*
X10593991Y-15540174D01*
X10593991Y-15540174D02*
X10574944Y-15530650D01*
X10574944Y-15530650D02*
X10536848Y-15530650D01*
X10536848Y-15530650D02*
X10517801Y-15540174D01*
X10603515Y-15654460D02*
X10584467Y-15663984D01*
X10584467Y-15663984D02*
X10536848Y-15663984D01*
X10536848Y-15663984D02*
X10517801Y-15654460D01*
X10517801Y-15654460D02*
X10508277Y-15635412D01*
X10508277Y-15635412D02*
X10508277Y-15616365D01*
X10508277Y-15616365D02*
X10517801Y-15597317D01*
X10517801Y-15597317D02*
X10536848Y-15587793D01*
X10536848Y-15587793D02*
X10584467Y-15587793D01*
X10584467Y-15587793D02*
X10603515Y-15578269D01*
X10698753Y-15530650D02*
X10698753Y-15730650D01*
X10698753Y-15540174D02*
X10717801Y-15530650D01*
X10717801Y-15530650D02*
X10755896Y-15530650D01*
X10755896Y-15530650D02*
X10774944Y-15540174D01*
X10774944Y-15540174D02*
X10784467Y-15549698D01*
X10784467Y-15549698D02*
X10793991Y-15568746D01*
X10793991Y-15568746D02*
X10793991Y-15625888D01*
X10793991Y-15625888D02*
X10784467Y-15644936D01*
X10784467Y-15644936D02*
X10774944Y-15654460D01*
X10774944Y-15654460D02*
X10755896Y-15663984D01*
X10755896Y-15663984D02*
X10717801Y-15663984D01*
X10717801Y-15663984D02*
X10698753Y-15654460D01*
X10879705Y-15644936D02*
X10889229Y-15654460D01*
X10889229Y-15654460D02*
X10879705Y-15663984D01*
X10879705Y-15663984D02*
X10870182Y-15654460D01*
X10870182Y-15654460D02*
X10879705Y-15644936D01*
X10879705Y-15644936D02*
X10879705Y-15663984D01*
X10879705Y-15540174D02*
X10889229Y-15549698D01*
X10889229Y-15549698D02*
X10879705Y-15559222D01*
X10879705Y-15559222D02*
X10870182Y-15549698D01*
X10870182Y-15549698D02*
X10879705Y-15540174D01*
X10879705Y-15540174D02*
X10879705Y-15559222D01*
X9047500Y-15892500D02*
X9247500Y-16092500D01*
X9247500Y-15892500D02*
X9047500Y-16092500D01*
X9593991Y-15950650D02*
X9593991Y-16083984D01*
X9546372Y-15874460D02*
X9498753Y-16017317D01*
X9498753Y-16017317D02*
X9622563Y-16017317D01*
X9698753Y-16064936D02*
X9708277Y-16074460D01*
X9708277Y-16074460D02*
X9698753Y-16083984D01*
X9698753Y-16083984D02*
X9689229Y-16074460D01*
X9689229Y-16074460D02*
X9698753Y-16064936D01*
X9698753Y-16064936D02*
X9698753Y-16083984D01*
X9774944Y-15883984D02*
X9898753Y-15883984D01*
X9898753Y-15883984D02*
X9832086Y-15960174D01*
X9832086Y-15960174D02*
X9860658Y-15960174D01*
X9860658Y-15960174D02*
X9879705Y-15969698D01*
X9879705Y-15969698D02*
X9889229Y-15979222D01*
X9889229Y-15979222D02*
X9898753Y-15998269D01*
X9898753Y-15998269D02*
X9898753Y-16045888D01*
X9898753Y-16045888D02*
X9889229Y-16064936D01*
X9889229Y-16064936D02*
X9879705Y-16074460D01*
X9879705Y-16074460D02*
X9860658Y-16083984D01*
X9860658Y-16083984D02*
X9803515Y-16083984D01*
X9803515Y-16083984D02*
X9784467Y-16074460D01*
X9784467Y-16074460D02*
X9774944Y-16064936D01*
X10022563Y-15883984D02*
X10041610Y-15883984D01*
X10041610Y-15883984D02*
X10060658Y-15893508D01*
X10060658Y-15893508D02*
X10070182Y-15903031D01*
X10070182Y-15903031D02*
X10079705Y-15922079D01*
X10079705Y-15922079D02*
X10089229Y-15960174D01*
X10089229Y-15960174D02*
X10089229Y-16007793D01*
X10089229Y-16007793D02*
X10079705Y-16045888D01*
X10079705Y-16045888D02*
X10070182Y-16064936D01*
X10070182Y-16064936D02*
X10060658Y-16074460D01*
X10060658Y-16074460D02*
X10041610Y-16083984D01*
X10041610Y-16083984D02*
X10022563Y-16083984D01*
X10022563Y-16083984D02*
X10003515Y-16074460D01*
X10003515Y-16074460D02*
X9993991Y-16064936D01*
X9993991Y-16064936D02*
X9984467Y-16045888D01*
X9984467Y-16045888D02*
X9974944Y-16007793D01*
X9974944Y-16007793D02*
X9974944Y-15960174D01*
X9974944Y-15960174D02*
X9984467Y-15922079D01*
X9984467Y-15922079D02*
X9993991Y-15903031D01*
X9993991Y-15903031D02*
X10003515Y-15893508D01*
X10003515Y-15893508D02*
X10022563Y-15883984D01*
X10213039Y-15883984D02*
X10232086Y-15883984D01*
X10232086Y-15883984D02*
X10251134Y-15893508D01*
X10251134Y-15893508D02*
X10260658Y-15903031D01*
X10260658Y-15903031D02*
X10270182Y-15922079D01*
X10270182Y-15922079D02*
X10279705Y-15960174D01*
X10279705Y-15960174D02*
X10279705Y-16007793D01*
X10279705Y-16007793D02*
X10270182Y-16045888D01*
X10270182Y-16045888D02*
X10260658Y-16064936D01*
X10260658Y-16064936D02*
X10251134Y-16074460D01*
X10251134Y-16074460D02*
X10232086Y-16083984D01*
X10232086Y-16083984D02*
X10213039Y-16083984D01*
X10213039Y-16083984D02*
X10193991Y-16074460D01*
X10193991Y-16074460D02*
X10184467Y-16064936D01*
X10184467Y-16064936D02*
X10174944Y-16045888D01*
X10174944Y-16045888D02*
X10165420Y-16007793D01*
X10165420Y-16007793D02*
X10165420Y-15960174D01*
X10165420Y-15960174D02*
X10174944Y-15922079D01*
X10174944Y-15922079D02*
X10184467Y-15903031D01*
X10184467Y-15903031D02*
X10193991Y-15893508D01*
X10193991Y-15893508D02*
X10213039Y-15883984D01*
X10365420Y-16083984D02*
X10365420Y-15950650D01*
X10365420Y-15969698D02*
X10374944Y-15960174D01*
X10374944Y-15960174D02*
X10393991Y-15950650D01*
X10393991Y-15950650D02*
X10422563Y-15950650D01*
X10422563Y-15950650D02*
X10441610Y-15960174D01*
X10441610Y-15960174D02*
X10451134Y-15979222D01*
X10451134Y-15979222D02*
X10451134Y-16083984D01*
X10451134Y-15979222D02*
X10460658Y-15960174D01*
X10460658Y-15960174D02*
X10479705Y-15950650D01*
X10479705Y-15950650D02*
X10508277Y-15950650D01*
X10508277Y-15950650D02*
X10527325Y-15960174D01*
X10527325Y-15960174D02*
X10536848Y-15979222D01*
X10536848Y-15979222D02*
X10536848Y-16083984D01*
X10632086Y-16083984D02*
X10632086Y-15950650D01*
X10632086Y-15969698D02*
X10641610Y-15960174D01*
X10641610Y-15960174D02*
X10660658Y-15950650D01*
X10660658Y-15950650D02*
X10689229Y-15950650D01*
X10689229Y-15950650D02*
X10708277Y-15960174D01*
X10708277Y-15960174D02*
X10717801Y-15979222D01*
X10717801Y-15979222D02*
X10717801Y-16083984D01*
X10717801Y-15979222D02*
X10727325Y-15960174D01*
X10727325Y-15960174D02*
X10746372Y-15950650D01*
X10746372Y-15950650D02*
X10774944Y-15950650D01*
X10774944Y-15950650D02*
X10793991Y-15960174D01*
X10793991Y-15960174D02*
X10803515Y-15979222D01*
X10803515Y-15979222D02*
X10803515Y-16083984D01*
X11193991Y-15874460D02*
X11022563Y-16131603D01*
X11451134Y-15883984D02*
X11470182Y-15883984D01*
X11470182Y-15883984D02*
X11489229Y-15893508D01*
X11489229Y-15893508D02*
X11498753Y-15903031D01*
X11498753Y-15903031D02*
X11508277Y-15922079D01*
X11508277Y-15922079D02*
X11517801Y-15960174D01*
X11517801Y-15960174D02*
X11517801Y-16007793D01*
X11517801Y-16007793D02*
X11508277Y-16045888D01*
X11508277Y-16045888D02*
X11498753Y-16064936D01*
X11498753Y-16064936D02*
X11489229Y-16074460D01*
X11489229Y-16074460D02*
X11470182Y-16083984D01*
X11470182Y-16083984D02*
X11451134Y-16083984D01*
X11451134Y-16083984D02*
X11432086Y-16074460D01*
X11432086Y-16074460D02*
X11422563Y-16064936D01*
X11422563Y-16064936D02*
X11413039Y-16045888D01*
X11413039Y-16045888D02*
X11403515Y-16007793D01*
X11403515Y-16007793D02*
X11403515Y-15960174D01*
X11403515Y-15960174D02*
X11413039Y-15922079D01*
X11413039Y-15922079D02*
X11422563Y-15903031D01*
X11422563Y-15903031D02*
X11432086Y-15893508D01*
X11432086Y-15893508D02*
X11451134Y-15883984D01*
X11603515Y-16064936D02*
X11613039Y-16074460D01*
X11613039Y-16074460D02*
X11603515Y-16083984D01*
X11603515Y-16083984D02*
X11593991Y-16074460D01*
X11593991Y-16074460D02*
X11603515Y-16064936D01*
X11603515Y-16064936D02*
X11603515Y-16083984D01*
X11803515Y-16083984D02*
X11689229Y-16083984D01*
X11746372Y-16083984D02*
X11746372Y-15883984D01*
X11746372Y-15883984D02*
X11727325Y-15912555D01*
X11727325Y-15912555D02*
X11708277Y-15931603D01*
X11708277Y-15931603D02*
X11689229Y-15941127D01*
X11974944Y-15883984D02*
X11936848Y-15883984D01*
X11936848Y-15883984D02*
X11917801Y-15893508D01*
X11917801Y-15893508D02*
X11908277Y-15903031D01*
X11908277Y-15903031D02*
X11889229Y-15931603D01*
X11889229Y-15931603D02*
X11879706Y-15969698D01*
X11879706Y-15969698D02*
X11879706Y-16045888D01*
X11879706Y-16045888D02*
X11889229Y-16064936D01*
X11889229Y-16064936D02*
X11898753Y-16074460D01*
X11898753Y-16074460D02*
X11917801Y-16083984D01*
X11917801Y-16083984D02*
X11955896Y-16083984D01*
X11955896Y-16083984D02*
X11974944Y-16074460D01*
X11974944Y-16074460D02*
X11984467Y-16064936D01*
X11984467Y-16064936D02*
X11993991Y-16045888D01*
X11993991Y-16045888D02*
X11993991Y-15998269D01*
X11993991Y-15998269D02*
X11984467Y-15979222D01*
X11984467Y-15979222D02*
X11974944Y-15969698D01*
X11974944Y-15969698D02*
X11955896Y-15960174D01*
X11955896Y-15960174D02*
X11917801Y-15960174D01*
X11917801Y-15960174D02*
X11898753Y-15969698D01*
X11898753Y-15969698D02*
X11889229Y-15979222D01*
X11889229Y-15979222D02*
X11879706Y-15998269D01*
X12089229Y-16083984D02*
X12127325Y-16083984D01*
X12127325Y-16083984D02*
X12146372Y-16074460D01*
X12146372Y-16074460D02*
X12155896Y-16064936D01*
X12155896Y-16064936D02*
X12174944Y-16036365D01*
X12174944Y-16036365D02*
X12184467Y-15998269D01*
X12184467Y-15998269D02*
X12184467Y-15922079D01*
X12184467Y-15922079D02*
X12174944Y-15903031D01*
X12174944Y-15903031D02*
X12165420Y-15893508D01*
X12165420Y-15893508D02*
X12146372Y-15883984D01*
X12146372Y-15883984D02*
X12108277Y-15883984D01*
X12108277Y-15883984D02*
X12089229Y-15893508D01*
X12089229Y-15893508D02*
X12079706Y-15903031D01*
X12079706Y-15903031D02*
X12070182Y-15922079D01*
X12070182Y-15922079D02*
X12070182Y-15969698D01*
X12070182Y-15969698D02*
X12079706Y-15988746D01*
X12079706Y-15988746D02*
X12089229Y-15998269D01*
X12089229Y-15998269D02*
X12108277Y-16007793D01*
X12108277Y-16007793D02*
X12146372Y-16007793D01*
X12146372Y-16007793D02*
X12165420Y-15998269D01*
X12165420Y-15998269D02*
X12174944Y-15988746D01*
X12174944Y-15988746D02*
X12184467Y-15969698D01*
X12251134Y-15883984D02*
X12374944Y-15883984D01*
X12374944Y-15883984D02*
X12308277Y-15960174D01*
X12308277Y-15960174D02*
X12336848Y-15960174D01*
X12336848Y-15960174D02*
X12355896Y-15969698D01*
X12355896Y-15969698D02*
X12365420Y-15979222D01*
X12365420Y-15979222D02*
X12374944Y-15998269D01*
X12374944Y-15998269D02*
X12374944Y-16045888D01*
X12374944Y-16045888D02*
X12365420Y-16064936D01*
X12365420Y-16064936D02*
X12355896Y-16074460D01*
X12355896Y-16074460D02*
X12336848Y-16083984D01*
X12336848Y-16083984D02*
X12279706Y-16083984D01*
X12279706Y-16083984D02*
X12260658Y-16074460D01*
X12260658Y-16074460D02*
X12251134Y-16064936D01*
X12451134Y-15883984D02*
X12451134Y-15922079D01*
X12527325Y-15883984D02*
X12527325Y-15922079D01*
X12822563Y-16160174D02*
X12813039Y-16150650D01*
X12813039Y-16150650D02*
X12793991Y-16122079D01*
X12793991Y-16122079D02*
X12784468Y-16103031D01*
X12784468Y-16103031D02*
X12774944Y-16074460D01*
X12774944Y-16074460D02*
X12765420Y-16026841D01*
X12765420Y-16026841D02*
X12765420Y-15988746D01*
X12765420Y-15988746D02*
X12774944Y-15941127D01*
X12774944Y-15941127D02*
X12784468Y-15912555D01*
X12784468Y-15912555D02*
X12793991Y-15893508D01*
X12793991Y-15893508D02*
X12813039Y-15864936D01*
X12813039Y-15864936D02*
X12822563Y-15855412D01*
X12984468Y-15950650D02*
X12984468Y-16083984D01*
X12936848Y-15874460D02*
X12889229Y-16017317D01*
X12889229Y-16017317D02*
X13013039Y-16017317D01*
X13241610Y-16083984D02*
X13241610Y-15883984D01*
X13327325Y-16083984D02*
X13327325Y-15979222D01*
X13327325Y-15979222D02*
X13317801Y-15960174D01*
X13317801Y-15960174D02*
X13298753Y-15950650D01*
X13298753Y-15950650D02*
X13270182Y-15950650D01*
X13270182Y-15950650D02*
X13251134Y-15960174D01*
X13251134Y-15960174D02*
X13241610Y-15969698D01*
X13451134Y-16083984D02*
X13432087Y-16074460D01*
X13432087Y-16074460D02*
X13422563Y-16064936D01*
X13422563Y-16064936D02*
X13413039Y-16045888D01*
X13413039Y-16045888D02*
X13413039Y-15988746D01*
X13413039Y-15988746D02*
X13422563Y-15969698D01*
X13422563Y-15969698D02*
X13432087Y-15960174D01*
X13432087Y-15960174D02*
X13451134Y-15950650D01*
X13451134Y-15950650D02*
X13479706Y-15950650D01*
X13479706Y-15950650D02*
X13498753Y-15960174D01*
X13498753Y-15960174D02*
X13508277Y-15969698D01*
X13508277Y-15969698D02*
X13517801Y-15988746D01*
X13517801Y-15988746D02*
X13517801Y-16045888D01*
X13517801Y-16045888D02*
X13508277Y-16064936D01*
X13508277Y-16064936D02*
X13498753Y-16074460D01*
X13498753Y-16074460D02*
X13479706Y-16083984D01*
X13479706Y-16083984D02*
X13451134Y-16083984D01*
X13632087Y-16083984D02*
X13613039Y-16074460D01*
X13613039Y-16074460D02*
X13603515Y-16055412D01*
X13603515Y-16055412D02*
X13603515Y-15883984D01*
X13784468Y-16074460D02*
X13765420Y-16083984D01*
X13765420Y-16083984D02*
X13727325Y-16083984D01*
X13727325Y-16083984D02*
X13708277Y-16074460D01*
X13708277Y-16074460D02*
X13698753Y-16055412D01*
X13698753Y-16055412D02*
X13698753Y-15979222D01*
X13698753Y-15979222D02*
X13708277Y-15960174D01*
X13708277Y-15960174D02*
X13727325Y-15950650D01*
X13727325Y-15950650D02*
X13765420Y-15950650D01*
X13765420Y-15950650D02*
X13784468Y-15960174D01*
X13784468Y-15960174D02*
X13793991Y-15979222D01*
X13793991Y-15979222D02*
X13793991Y-15998269D01*
X13793991Y-15998269D02*
X13698753Y-16017317D01*
X13870182Y-16074460D02*
X13889230Y-16083984D01*
X13889230Y-16083984D02*
X13927325Y-16083984D01*
X13927325Y-16083984D02*
X13946372Y-16074460D01*
X13946372Y-16074460D02*
X13955896Y-16055412D01*
X13955896Y-16055412D02*
X13955896Y-16045888D01*
X13955896Y-16045888D02*
X13946372Y-16026841D01*
X13946372Y-16026841D02*
X13927325Y-16017317D01*
X13927325Y-16017317D02*
X13898753Y-16017317D01*
X13898753Y-16017317D02*
X13879706Y-16007793D01*
X13879706Y-16007793D02*
X13870182Y-15988746D01*
X13870182Y-15988746D02*
X13870182Y-15979222D01*
X13870182Y-15979222D02*
X13879706Y-15960174D01*
X13879706Y-15960174D02*
X13898753Y-15950650D01*
X13898753Y-15950650D02*
X13927325Y-15950650D01*
X13927325Y-15950650D02*
X13946372Y-15960174D01*
X14022563Y-16160174D02*
X14032087Y-16150650D01*
X14032087Y-16150650D02*
X14051134Y-16122079D01*
X14051134Y-16122079D02*
X14060658Y-16103031D01*
X14060658Y-16103031D02*
X14070182Y-16074460D01*
X14070182Y-16074460D02*
X14079706Y-16026841D01*
X14079706Y-16026841D02*
X14079706Y-15988746D01*
X14079706Y-15988746D02*
X14070182Y-15941127D01*
X14070182Y-15941127D02*
X14060658Y-15912555D01*
X14060658Y-15912555D02*
X14051134Y-15893508D01*
X14051134Y-15893508D02*
X14032087Y-15864936D01*
X14032087Y-15864936D02*
X14022563Y-15855412D01*
X14384468Y-16160174D02*
X14374944Y-16150650D01*
X14374944Y-16150650D02*
X14355896Y-16122079D01*
X14355896Y-16122079D02*
X14346372Y-16103031D01*
X14346372Y-16103031D02*
X14336849Y-16074460D01*
X14336849Y-16074460D02*
X14327325Y-16026841D01*
X14327325Y-16026841D02*
X14327325Y-15988746D01*
X14327325Y-15988746D02*
X14336849Y-15941127D01*
X14336849Y-15941127D02*
X14346372Y-15912555D01*
X14346372Y-15912555D02*
X14355896Y-15893508D01*
X14355896Y-15893508D02*
X14374944Y-15864936D01*
X14374944Y-15864936D02*
X14384468Y-15855412D01*
X14460658Y-15950650D02*
X14460658Y-16083984D01*
X14460658Y-15969698D02*
X14470182Y-15960174D01*
X14470182Y-15960174D02*
X14489230Y-15950650D01*
X14489230Y-15950650D02*
X14517801Y-15950650D01*
X14517801Y-15950650D02*
X14536849Y-15960174D01*
X14536849Y-15960174D02*
X14546372Y-15979222D01*
X14546372Y-15979222D02*
X14546372Y-16083984D01*
X14670182Y-16083984D02*
X14651134Y-16074460D01*
X14651134Y-16074460D02*
X14641611Y-16064936D01*
X14641611Y-16064936D02*
X14632087Y-16045888D01*
X14632087Y-16045888D02*
X14632087Y-15988746D01*
X14632087Y-15988746D02*
X14641611Y-15969698D01*
X14641611Y-15969698D02*
X14651134Y-15960174D01*
X14651134Y-15960174D02*
X14670182Y-15950650D01*
X14670182Y-15950650D02*
X14698753Y-15950650D01*
X14698753Y-15950650D02*
X14717801Y-15960174D01*
X14717801Y-15960174D02*
X14727325Y-15969698D01*
X14727325Y-15969698D02*
X14736849Y-15988746D01*
X14736849Y-15988746D02*
X14736849Y-16045888D01*
X14736849Y-16045888D02*
X14727325Y-16064936D01*
X14727325Y-16064936D02*
X14717801Y-16074460D01*
X14717801Y-16074460D02*
X14698753Y-16083984D01*
X14698753Y-16083984D02*
X14670182Y-16083984D01*
X14793992Y-15950650D02*
X14870182Y-15950650D01*
X14822563Y-15883984D02*
X14822563Y-16055412D01*
X14822563Y-16055412D02*
X14832087Y-16074460D01*
X14832087Y-16074460D02*
X14851134Y-16083984D01*
X14851134Y-16083984D02*
X14870182Y-16083984D01*
X15089230Y-15950650D02*
X15089230Y-16150650D01*
X15089230Y-15960174D02*
X15108277Y-15950650D01*
X15108277Y-15950650D02*
X15146373Y-15950650D01*
X15146373Y-15950650D02*
X15165420Y-15960174D01*
X15165420Y-15960174D02*
X15174944Y-15969698D01*
X15174944Y-15969698D02*
X15184468Y-15988746D01*
X15184468Y-15988746D02*
X15184468Y-16045888D01*
X15184468Y-16045888D02*
X15174944Y-16064936D01*
X15174944Y-16064936D02*
X15165420Y-16074460D01*
X15165420Y-16074460D02*
X15146373Y-16083984D01*
X15146373Y-16083984D02*
X15108277Y-16083984D01*
X15108277Y-16083984D02*
X15089230Y-16074460D01*
X15298753Y-16083984D02*
X15279706Y-16074460D01*
X15279706Y-16074460D02*
X15270182Y-16055412D01*
X15270182Y-16055412D02*
X15270182Y-15883984D01*
X15460658Y-16083984D02*
X15460658Y-15979222D01*
X15460658Y-15979222D02*
X15451134Y-15960174D01*
X15451134Y-15960174D02*
X15432087Y-15950650D01*
X15432087Y-15950650D02*
X15393992Y-15950650D01*
X15393992Y-15950650D02*
X15374944Y-15960174D01*
X15460658Y-16074460D02*
X15441611Y-16083984D01*
X15441611Y-16083984D02*
X15393992Y-16083984D01*
X15393992Y-16083984D02*
X15374944Y-16074460D01*
X15374944Y-16074460D02*
X15365420Y-16055412D01*
X15365420Y-16055412D02*
X15365420Y-16036365D01*
X15365420Y-16036365D02*
X15374944Y-16017317D01*
X15374944Y-16017317D02*
X15393992Y-16007793D01*
X15393992Y-16007793D02*
X15441611Y-16007793D01*
X15441611Y-16007793D02*
X15460658Y-15998269D01*
X15527325Y-15950650D02*
X15603515Y-15950650D01*
X15555896Y-15883984D02*
X15555896Y-16055412D01*
X15555896Y-16055412D02*
X15565420Y-16074460D01*
X15565420Y-16074460D02*
X15584468Y-16083984D01*
X15584468Y-16083984D02*
X15603515Y-16083984D01*
X15746373Y-16074460D02*
X15727325Y-16083984D01*
X15727325Y-16083984D02*
X15689230Y-16083984D01*
X15689230Y-16083984D02*
X15670182Y-16074460D01*
X15670182Y-16074460D02*
X15660658Y-16055412D01*
X15660658Y-16055412D02*
X15660658Y-15979222D01*
X15660658Y-15979222D02*
X15670182Y-15960174D01*
X15670182Y-15960174D02*
X15689230Y-15950650D01*
X15689230Y-15950650D02*
X15727325Y-15950650D01*
X15727325Y-15950650D02*
X15746373Y-15960174D01*
X15746373Y-15960174D02*
X15755896Y-15979222D01*
X15755896Y-15979222D02*
X15755896Y-15998269D01*
X15755896Y-15998269D02*
X15660658Y-16017317D01*
X15927325Y-16083984D02*
X15927325Y-15883984D01*
X15927325Y-16074460D02*
X15908277Y-16083984D01*
X15908277Y-16083984D02*
X15870182Y-16083984D01*
X15870182Y-16083984D02*
X15851134Y-16074460D01*
X15851134Y-16074460D02*
X15841611Y-16064936D01*
X15841611Y-16064936D02*
X15832087Y-16045888D01*
X15832087Y-16045888D02*
X15832087Y-15988746D01*
X15832087Y-15988746D02*
X15841611Y-15969698D01*
X15841611Y-15969698D02*
X15851134Y-15960174D01*
X15851134Y-15960174D02*
X15870182Y-15950650D01*
X15870182Y-15950650D02*
X15908277Y-15950650D01*
X15908277Y-15950650D02*
X15927325Y-15960174D01*
X16003515Y-16160174D02*
X16013039Y-16150650D01*
X16013039Y-16150650D02*
X16032087Y-16122079D01*
X16032087Y-16122079D02*
X16041611Y-16103031D01*
X16041611Y-16103031D02*
X16051134Y-16074460D01*
X16051134Y-16074460D02*
X16060658Y-16026841D01*
X16060658Y-16026841D02*
X16060658Y-15988746D01*
X16060658Y-15988746D02*
X16051134Y-15941127D01*
X16051134Y-15941127D02*
X16041611Y-15912555D01*
X16041611Y-15912555D02*
X16032087Y-15893508D01*
X16032087Y-15893508D02*
X16013039Y-15864936D01*
X16013039Y-15864936D02*
X16003515Y-15855412D01*
M02*
