%TF.GenerationSoftware,KiCad,Pcbnew,9.0.3*%
%TF.CreationDate,2026-01-19T14:18:06+02:00*%
%TF.ProjectId,amplifier,616d706c-6966-4696-9572-2e6b69636164,v0.1*%
%TF.SameCoordinates,Original*%
%TF.FileFunction,Paste,Bot*%
%TF.FilePolarity,Positive*%
%FSLAX46Y46*%
G04 Gerber Fmt 4.6, Leading zero omitted, Abs format (unit mm)*
G04 Created by KiCad (PCBNEW 9.0.3) date 2026-01-19 14:18:06*
%MOMM*%
%LPD*%
G01*
G04 APERTURE LIST*
G04 Aperture macros list*
%AMRoundRect*
0 Rectangle with rounded corners*
0 $1 Rounding radius*
0 $2 $3 $4 $5 $6 $7 $8 $9 X,Y pos of 4 corners*
0 Add a 4 corners polygon primitive as box body*
4,1,4,$2,$3,$4,$5,$6,$7,$8,$9,$2,$3,0*
0 Add four circle primitives for the rounded corners*
1,1,$1+$1,$2,$3*
1,1,$1+$1,$4,$5*
1,1,$1+$1,$6,$7*
1,1,$1+$1,$8,$9*
0 Add four rect primitives between the rounded corners*
20,1,$1+$1,$2,$3,$4,$5,0*
20,1,$1+$1,$4,$5,$6,$7,0*
20,1,$1+$1,$6,$7,$8,$9,0*
20,1,$1+$1,$8,$9,$2,$3,0*%
G04 Aperture macros list end*
%ADD10RoundRect,0.237500X0.237500X-0.300000X0.237500X0.300000X-0.237500X0.300000X-0.237500X-0.300000X0*%
%ADD11RoundRect,0.250000X-0.450000X0.350000X-0.450000X-0.350000X0.450000X-0.350000X0.450000X0.350000X0*%
%ADD12RoundRect,0.250000X-1.500000X-0.650000X1.500000X-0.650000X1.500000X0.650000X-1.500000X0.650000X0*%
%ADD13RoundRect,0.250000X1.500000X0.650000X-1.500000X0.650000X-1.500000X-0.650000X1.500000X-0.650000X0*%
%ADD14RoundRect,0.250000X-1.075000X-0.550000X1.075000X-0.550000X1.075000X0.550000X-1.075000X0.550000X0*%
%ADD15RoundRect,0.250000X0.475000X-0.337500X0.475000X0.337500X-0.475000X0.337500X-0.475000X-0.337500X0*%
%ADD16RoundRect,0.155000X0.212500X0.155000X-0.212500X0.155000X-0.212500X-0.155000X0.212500X-0.155000X0*%
%ADD17RoundRect,0.250000X-0.337500X-0.475000X0.337500X-0.475000X0.337500X0.475000X-0.337500X0.475000X0*%
%ADD18RoundRect,0.250000X0.450000X-0.350000X0.450000X0.350000X-0.450000X0.350000X-0.450000X-0.350000X0*%
%ADD19RoundRect,0.250000X0.350000X0.450000X-0.350000X0.450000X-0.350000X-0.450000X0.350000X-0.450000X0*%
%ADD20RoundRect,0.237500X-0.237500X0.300000X-0.237500X-0.300000X0.237500X-0.300000X0.237500X0.300000X0*%
%ADD21RoundRect,0.250000X-0.350000X-0.450000X0.350000X-0.450000X0.350000X0.450000X-0.350000X0.450000X0*%
%ADD22RoundRect,0.250000X-0.475000X0.337500X-0.475000X-0.337500X0.475000X-0.337500X0.475000X0.337500X0*%
%ADD23RoundRect,0.250000X-1.250000X-0.550000X1.250000X-0.550000X1.250000X0.550000X-1.250000X0.550000X0*%
%ADD24RoundRect,0.250000X0.337500X0.475000X-0.337500X0.475000X-0.337500X-0.475000X0.337500X-0.475000X0*%
%ADD25RoundRect,0.150000X-0.512500X-0.150000X0.512500X-0.150000X0.512500X0.150000X-0.512500X0.150000X0*%
%ADD26RoundRect,0.250000X0.405000X-0.385000X0.405000X0.385000X-0.405000X0.385000X-0.405000X-0.385000X0*%
%ADD27RoundRect,0.100000X0.100000X-0.687500X0.100000X0.687500X-0.100000X0.687500X-0.100000X-0.687500X0*%
%ADD28RoundRect,0.237500X0.300000X0.237500X-0.300000X0.237500X-0.300000X-0.237500X0.300000X-0.237500X0*%
%ADD29RoundRect,0.250000X1.050000X0.550000X-1.050000X0.550000X-1.050000X-0.550000X1.050000X-0.550000X0*%
%ADD30R,3.600000X2.700000*%
%ADD31RoundRect,0.375000X0.625000X0.375000X-0.625000X0.375000X-0.625000X-0.375000X0.625000X-0.375000X0*%
%ADD32RoundRect,0.500000X0.500000X1.400000X-0.500000X1.400000X-0.500000X-1.400000X0.500000X-1.400000X0*%
%ADD33RoundRect,0.250000X1.500000X0.550000X-1.500000X0.550000X-1.500000X-0.550000X1.500000X-0.550000X0*%
%ADD34RoundRect,0.250000X-0.650000X0.412500X-0.650000X-0.412500X0.650000X-0.412500X0.650000X0.412500X0*%
%ADD35RoundRect,0.375000X0.375000X-0.625000X0.375000X0.625000X-0.375000X0.625000X-0.375000X-0.625000X0*%
%ADD36RoundRect,0.500000X1.400000X-0.500000X1.400000X0.500000X-1.400000X0.500000X-1.400000X-0.500000X0*%
G04 APERTURE END LIST*
D10*
%TO.C,C43*%
X247380000Y-135862500D03*
X247380000Y-134137500D03*
%TD*%
D11*
%TO.C,R14*%
X158250000Y-132250000D03*
X158250000Y-134250000D03*
%TD*%
D12*
%TO.C,D2*%
X142500000Y-73300000D03*
X147500000Y-73300000D03*
%TD*%
D13*
%TO.C,D1*%
X138800000Y-83250000D03*
X133800000Y-83250000D03*
%TD*%
D14*
%TO.C,C35*%
X125150000Y-106500000D03*
X128500000Y-106500000D03*
%TD*%
D15*
%TO.C,C31*%
X145875000Y-113537500D03*
X145875000Y-111462500D03*
%TD*%
D16*
%TO.C,C8*%
X136967500Y-80750000D03*
X135832500Y-80750000D03*
%TD*%
D10*
%TO.C,C40*%
X247380000Y-127862500D03*
X247380000Y-126137500D03*
%TD*%
D17*
%TO.C,C2*%
X115212500Y-73500000D03*
X117287500Y-73500000D03*
%TD*%
D10*
%TO.C,C11*%
X133000000Y-69862500D03*
X133000000Y-68137500D03*
%TD*%
D11*
%TO.C,R18*%
X160500000Y-132250000D03*
X160500000Y-134250000D03*
%TD*%
D18*
%TO.C,R10*%
X141075000Y-116700000D03*
X141075000Y-114700000D03*
%TD*%
D19*
%TO.C,R3*%
X126600000Y-72100000D03*
X124600000Y-72100000D03*
%TD*%
D20*
%TO.C,C20*%
X249000000Y-72637500D03*
X249000000Y-74362500D03*
%TD*%
D21*
%TO.C,R1*%
X124600000Y-70000000D03*
X126600000Y-70000000D03*
%TD*%
D22*
%TO.C,C13*%
X138025000Y-92462500D03*
X138025000Y-94537500D03*
%TD*%
D20*
%TO.C,C37*%
X249000000Y-126137500D03*
X249000000Y-127862500D03*
%TD*%
D23*
%TO.C,C4*%
X122550000Y-88250000D03*
X126950000Y-88250000D03*
%TD*%
D24*
%TO.C,C10*%
X147337500Y-70100000D03*
X145262500Y-70100000D03*
%TD*%
D25*
%TO.C,Q1*%
X160612500Y-138200000D03*
X160612500Y-136300000D03*
X162887500Y-137250000D03*
%TD*%
D19*
%TO.C,R2*%
X136900000Y-69700000D03*
X134900000Y-69700000D03*
%TD*%
D20*
%TO.C,C6*%
X116000000Y-65637500D03*
X116000000Y-67362500D03*
%TD*%
D14*
%TO.C,C38*%
X125150000Y-111500000D03*
X128500000Y-111500000D03*
%TD*%
D11*
%TO.C,R5*%
X140275000Y-92500000D03*
X140275000Y-94500000D03*
%TD*%
D24*
%TO.C,C9*%
X147337500Y-68000000D03*
X145262500Y-68000000D03*
%TD*%
D26*
%TO.C,IC2*%
X134235000Y-76952500D03*
X135865000Y-76952500D03*
X134235000Y-75372500D03*
X135865000Y-75372500D03*
D27*
X137000000Y-79025000D03*
X136350000Y-79025000D03*
X135700000Y-79025000D03*
X135050000Y-79025000D03*
X134400000Y-79025000D03*
X133750000Y-79025000D03*
X133100000Y-79025000D03*
X133100000Y-73300000D03*
X133750000Y-73300000D03*
X134400000Y-73300000D03*
X135050000Y-73300000D03*
X135700000Y-73300000D03*
X136350000Y-73300000D03*
X137000000Y-73300000D03*
%TD*%
D10*
%TO.C,C25*%
X247380000Y-82362500D03*
X247380000Y-80637500D03*
%TD*%
D19*
%TO.C,R6*%
X249500000Y-70500000D03*
X247500000Y-70500000D03*
%TD*%
D22*
%TO.C,C14*%
X135775000Y-92462500D03*
X135775000Y-94537500D03*
%TD*%
D28*
%TO.C,C7*%
X130562500Y-72300000D03*
X128837500Y-72300000D03*
%TD*%
D29*
%TO.C,C3*%
X110300000Y-83250000D03*
X106700000Y-83250000D03*
%TD*%
D11*
%TO.C,R19*%
X151250000Y-132250000D03*
X151250000Y-134250000D03*
%TD*%
D21*
%TO.C,R9*%
X247500000Y-84500000D03*
X249500000Y-84500000D03*
%TD*%
D25*
%TO.C,Q2*%
X151362500Y-138200000D03*
X151362500Y-136300000D03*
X153637500Y-137250000D03*
%TD*%
D10*
%TO.C,C45*%
X249000000Y-135862500D03*
X249000000Y-134137500D03*
%TD*%
D30*
%TO.C,L1*%
X125900000Y-83150000D03*
X125900000Y-74850000D03*
%TD*%
D31*
%TO.C,IC1*%
X113650000Y-65950000D03*
X113650000Y-68250000D03*
X113650000Y-70550000D03*
D32*
X107350000Y-68250000D03*
%TD*%
D22*
%TO.C,C15*%
X142375000Y-92462500D03*
X142375000Y-94537500D03*
%TD*%
D33*
%TO.C,C1*%
X112300000Y-76500000D03*
X106700000Y-76500000D03*
%TD*%
D19*
%TO.C,R12*%
X249500000Y-124000000D03*
X247500000Y-124000000D03*
%TD*%
D10*
%TO.C,C30*%
X140875000Y-108362500D03*
X140875000Y-106637500D03*
%TD*%
D21*
%TO.C,R17*%
X153250000Y-142250000D03*
X155250000Y-142250000D03*
%TD*%
D34*
%TO.C,C5*%
X122300000Y-69037500D03*
X122300000Y-72162500D03*
%TD*%
D21*
%TO.C,R13*%
X247500000Y-138000000D03*
X249500000Y-138000000D03*
%TD*%
D14*
%TO.C,C21*%
X125150000Y-99000000D03*
X128500000Y-99000000D03*
%TD*%
D10*
%TO.C,C29*%
X249000000Y-82362500D03*
X249000000Y-80637500D03*
%TD*%
D21*
%TO.C,R16*%
X162500000Y-142250000D03*
X164500000Y-142250000D03*
%TD*%
D10*
%TO.C,C23*%
X247380000Y-74362500D03*
X247380000Y-72637500D03*
%TD*%
D11*
%TO.C,R15*%
X149000000Y-132250000D03*
X149000000Y-134250000D03*
%TD*%
D35*
%TO.C,U1*%
X118550000Y-87400000D03*
X116250000Y-87400000D03*
D36*
X116250000Y-81100000D03*
D35*
X113950000Y-87400000D03*
%TD*%
D14*
%TO.C,C18*%
X125150000Y-94000000D03*
X128500000Y-94000000D03*
%TD*%
M02*
