M48
; DRILL file {KiCad 9.0.3} date 2026-01-19T14:18:09+0200
; FORMAT={-:-/ absolute / metric / decimal}
; #@! TF.CreationDate,2026-01-19T14:18:09+02:00
; #@! TF.GenerationSoftware,Kicad,Pcbnew,9.0.3
; #@! TF.FileFunction,Plated,1,2,PTH
FMAT,2
METRIC
; #@! TA.AperFunction,Plated,PTH,ViaDrill
T1C0.300
; #@! TA.AperFunction,Plated,PTH,ViaDrill
T2C0.400
; #@! TA.AperFunction,Plated,PTH,ComponentDrill
T3C1.000
; #@! TA.AperFunction,Plated,PTH,ComponentDrill
T4C1.200
; #@! TA.AperFunction,Plated,PTH,ComponentDrill
T5C1.300
; #@! TA.AperFunction,Plated,PTH,ComponentDrill
T6C3.175
%
G90
G05
T1
X106.75Y-86.0
X107.0Y-78.75
X107.0Y-81.25
X107.25Y-73.75
X109.75Y-66.75
X109.75Y-69.5
X113.75Y-114.0
X116.25Y-69.5
X116.25Y-71.5
X116.25Y-75.5
X117.75Y-89.5
X118.5Y-67.5
X118.5Y-71.5
X118.5Y-75.5
X118.5Y-85.0
X121.0Y-86.0
X129.0Y-86.5
X129.0Y-90.5
X129.75Y-88.5
X131.0Y-98.25
X131.0Y-106.5
X131.0Y-111.5
X131.25Y-94.0
X134.25Y-109.0
X134.5Y-100.75
X134.5Y-102.75
X134.5Y-104.75
X135.0Y-97.25
X135.25Y-89.5
X135.8Y-71.5
X136.75Y-109.0
X137.0Y-89.5
X137.25Y-96.0
X138.25Y-113.5
X139.0Y-89.5
X139.75Y-111.0
X140.912Y-105.662
X141.0Y-89.5
X141.0Y-141.25
X141.088Y-113.5
X142.0Y-138.0
X143.0Y-123.5
X143.75Y-89.5
X144.25Y-98.25
X144.25Y-103.5
X144.25Y-104.5
X144.25Y-107.5
X144.275Y-108.9
X144.275Y-109.9
X144.75Y-91.75
X145.0Y-108.25
X145.75Y-115.75
X145.75Y-132.25
X147.0Y-141.5
X147.75Y-101.5
X147.75Y-102.2
X147.75Y-105.25
X147.817Y-104.541
X148.0Y-106.887
X148.0Y-107.487
X148.0Y-137.5
X148.225Y-99.287
X148.225Y-99.887
X148.5Y-101.75
X148.5Y-102.487
X148.5Y-104.387
X148.5Y-104.987
X148.75Y-106.887
X148.75Y-107.5
X148.75Y-115.75
X148.825Y-99.287
X148.825Y-99.887
X149.5Y-143.5
X151.225Y-99.587
X151.225Y-102.487
X151.225Y-104.387
X151.225Y-107.188
X151.625Y-107.587
X151.725Y-99.087
X151.825Y-102.487
X151.825Y-104.387
X154.25Y-135.25
X154.25Y-139.0
X158.5Y-143.5
X163.25Y-135.25
X163.5Y-139.0
X198.7Y-59.8
X198.7Y-60.8
X198.8Y-146.8
X198.9Y-145.4
X199.6Y-59.3
X199.6Y-60.3
X199.6Y-61.4
X199.6Y-144.9
X199.6Y-146.0
X199.6Y-147.1
X204.8Y-98.8
X204.9Y-100.1
X204.9Y-106.6
X204.9Y-108.0
X205.9Y-98.2
X205.9Y-99.3
X205.9Y-100.5
X206.0Y-106.1
X206.0Y-107.4
X206.0Y-108.7
T2
X140.369Y-96.881
X142.375Y-94.537
X147.25Y-130.25
X152.0Y-130.25
T3
X103.5Y-81.0
X103.5Y-96.5
X103.5Y-110.25
X103.5Y-125.75
X108.75Y-88.0
X108.75Y-103.5
X122.3Y-65.8
X138.5Y-62.75
X154.0Y-62.75
X242.0Y-75.0
X242.0Y-80.0
X242.0Y-128.5
X242.0Y-133.5
T4
X192.25Y-88.5
X192.25Y-96.0
X192.25Y-110.987
X192.25Y-118.487
X230.5Y-61.75
X230.5Y-76.75
X230.5Y-81.0
X230.5Y-96.0
X230.5Y-111.0
X230.5Y-126.0
X230.5Y-130.25
X230.5Y-145.25
T5
X100.95Y-86.25
X100.95Y-91.25
X100.95Y-115.5
X100.95Y-120.5
X143.75Y-60.578
X148.75Y-60.578
X253.9Y-75.0
X253.9Y-80.0
X253.9Y-128.5
X253.9Y-133.5
T6
X114.688Y-134.9
X177.688Y-71.9
M30
