%TF.GenerationSoftware,KiCad,Pcbnew,9.0.3*%
%TF.CreationDate,2026-01-19T14:18:06+02:00*%
%TF.ProjectId,amplifier,616d706c-6966-4696-9572-2e6b69636164,v0.1*%
%TF.SameCoordinates,Original*%
%TF.FileFunction,Soldermask,Top*%
%TF.FilePolarity,Negative*%
%FSLAX46Y46*%
G04 Gerber Fmt 4.6, Leading zero omitted, Abs format (unit mm)*
G04 Created by KiCad (PCBNEW 9.0.3) date 2026-01-19 14:18:06*
%MOMM*%
%LPD*%
G01*
G04 APERTURE LIST*
G04 Aperture macros list*
%AMRoundRect*
0 Rectangle with rounded corners*
0 $1 Rounding radius*
0 $2 $3 $4 $5 $6 $7 $8 $9 X,Y pos of 4 corners*
0 Add a 4 corners polygon primitive as box body*
4,1,4,$2,$3,$4,$5,$6,$7,$8,$9,$2,$3,0*
0 Add four circle primitives for the rounded corners*
1,1,$1+$1,$2,$3*
1,1,$1+$1,$4,$5*
1,1,$1+$1,$6,$7*
1,1,$1+$1,$8,$9*
0 Add four rect primitives between the rounded corners*
20,1,$1+$1,$2,$3,$4,$5,0*
20,1,$1+$1,$4,$5,$6,$7,0*
20,1,$1+$1,$6,$7,$8,$9,0*
20,1,$1+$1,$8,$9,$2,$3,0*%
G04 Aperture macros list end*
%ADD10C,4.300000*%
%ADD11C,2.000000*%
%ADD12RoundRect,0.250000X0.475000X-0.337500X0.475000X0.337500X-0.475000X0.337500X-0.475000X-0.337500X0*%
%ADD13R,5.000000X5.000000*%
%ADD14C,2.400000*%
%ADD15RoundRect,0.250001X-0.949999X0.949999X-0.949999X-0.949999X0.949999X-0.949999X0.949999X0.949999X0*%
%ADD16RoundRect,0.250000X-1.050000X1.050000X-1.050000X-1.050000X1.050000X-1.050000X1.050000X1.050000X0*%
%ADD17C,2.600000*%
%ADD18RoundRect,0.250000X-0.337500X-0.475000X0.337500X-0.475000X0.337500X0.475000X-0.337500X0.475000X0*%
%ADD19RoundRect,0.250001X0.949999X-0.949999X0.949999X0.949999X-0.949999X0.949999X-0.949999X-0.949999X0*%
%ADD20C,4.000000*%
%ADD21RoundRect,0.237500X0.300000X0.237500X-0.300000X0.237500X-0.300000X-0.237500X0.300000X-0.237500X0*%
%ADD22RoundRect,0.250000X-0.475000X0.337500X-0.475000X-0.337500X0.475000X-0.337500X0.475000X0.337500X0*%
%ADD23RoundRect,0.100000X-0.687500X-0.100000X0.687500X-0.100000X0.687500X0.100000X-0.687500X0.100000X0*%
%ADD24R,1.600000X1.400000*%
%ADD25RoundRect,0.250000X1.050000X-1.050000X1.050000X1.050000X-1.050000X1.050000X-1.050000X-1.050000X0*%
%ADD26RoundRect,0.250000X0.325000X0.450000X-0.325000X0.450000X-0.325000X-0.450000X0.325000X-0.450000X0*%
%ADD27RoundRect,0.250000X0.350000X0.450000X-0.350000X0.450000X-0.350000X-0.450000X0.350000X-0.450000X0*%
%ADD28RoundRect,0.237500X-0.300000X-0.237500X0.300000X-0.237500X0.300000X0.237500X-0.300000X0.237500X0*%
%ADD29RoundRect,0.250000X-0.350000X-0.450000X0.350000X-0.450000X0.350000X0.450000X-0.350000X0.450000X0*%
%ADD30RoundRect,0.250000X0.337500X0.475000X-0.337500X0.475000X-0.337500X-0.475000X0.337500X-0.475000X0*%
%ADD31RoundRect,0.250000X1.050000X1.050000X-1.050000X1.050000X-1.050000X-1.050000X1.050000X-1.050000X0*%
G04 APERTURE END LIST*
D10*
%TO.C,REF\u002A\u002A*%
X99000000Y-147000000D03*
%TD*%
%TO.C,REF\u002A\u002A*%
X99000000Y-60000000D03*
%TD*%
%TO.C,REF\u002A\u002A*%
X256000000Y-60000000D03*
%TD*%
%TO.C,REF\u002A\u002A*%
X256000000Y-147000000D03*
%TD*%
D11*
%TO.C,GND*%
X177600000Y-65600000D03*
%TD*%
%TO.C,+15V*%
X122300000Y-65800000D03*
%TD*%
D12*
%TO.C,C16*%
X155025000Y-102562500D03*
X155025000Y-100487500D03*
%TD*%
D13*
%TO.C,L5*%
X207500000Y-128150000D03*
X203000000Y-145150000D03*
X212000000Y-145150000D03*
%TD*%
D11*
%TO.C,GND*%
X138500000Y-62750000D03*
%TD*%
%TO.C,OUTC*%
X242000000Y-128500000D03*
%TD*%
%TO.C,OUTD*%
X242000000Y-133500000D03*
%TD*%
D14*
%TO.C,C22*%
X230500000Y-61750000D03*
X230500000Y-76750000D03*
%TD*%
D15*
%TO.C,C34*%
X192250000Y-110987246D03*
D14*
X192250000Y-118487246D03*
%TD*%
D11*
%TO.C,IN_C*%
X103500000Y-110250000D03*
%TD*%
D16*
%TO.C,J5*%
X253900000Y-128500000D03*
D17*
X253900000Y-133500000D03*
%TD*%
D18*
%TO.C,C26*%
X136712500Y-103650000D03*
X138787500Y-103650000D03*
%TD*%
D19*
%TO.C,C17*%
X192250000Y-96000000D03*
D14*
X192250000Y-88500000D03*
%TD*%
D20*
%TO.C,HS1*%
X114687500Y-134900000D03*
X177687500Y-71900000D03*
%TD*%
D11*
%TO.C,OUTA*%
X242000000Y-75000000D03*
%TD*%
D21*
%TO.C,C19*%
X151237500Y-94690000D03*
X149512500Y-94690000D03*
%TD*%
D11*
%TO.C,+12V*%
X108750000Y-88000000D03*
%TD*%
D22*
%TO.C,C33*%
X155025000Y-104287500D03*
X155025000Y-106362500D03*
%TD*%
D18*
%TO.C,C27*%
X136712500Y-105650000D03*
X138787500Y-105650000D03*
%TD*%
D11*
%TO.C,IN_B*%
X103500000Y-96500000D03*
%TD*%
D23*
%TO.C,U2*%
X142475000Y-96732500D03*
X142475000Y-97367500D03*
X142475000Y-98002500D03*
X142475000Y-98637500D03*
X142475000Y-99272500D03*
X142475000Y-99907500D03*
X142475000Y-100542500D03*
X142475000Y-101177500D03*
X142475000Y-101812500D03*
X142475000Y-102447500D03*
X142475000Y-103082500D03*
X142475000Y-103717500D03*
X142475000Y-104352500D03*
X142475000Y-104987500D03*
X142475000Y-105622500D03*
X142475000Y-106257500D03*
X142475000Y-106892500D03*
X142475000Y-107527500D03*
X142475000Y-108162500D03*
X142475000Y-108797500D03*
X142475000Y-109432500D03*
X142475000Y-110067500D03*
X149900000Y-110067500D03*
X149900000Y-109432500D03*
X149900000Y-108797500D03*
X149900000Y-108162500D03*
X149900000Y-107527500D03*
X149900000Y-106892500D03*
X149900000Y-106257500D03*
X149900000Y-105622500D03*
X149900000Y-104987500D03*
X149900000Y-104352500D03*
X149900000Y-103717500D03*
X149900000Y-103082500D03*
X149900000Y-102447500D03*
X149900000Y-101812500D03*
X149900000Y-101177500D03*
X149900000Y-100542500D03*
X149900000Y-99907500D03*
X149900000Y-99272500D03*
X149900000Y-98637500D03*
X149900000Y-98002500D03*
X149900000Y-97367500D03*
X149900000Y-96732500D03*
%TD*%
D24*
%TO.C,SW1*%
X122000000Y-143750000D03*
X130000000Y-143750000D03*
X122000000Y-148250000D03*
X130000000Y-148250000D03*
%TD*%
D11*
%TO.C,IN_D*%
X103500000Y-125750000D03*
%TD*%
D13*
%TO.C,L3*%
X214000000Y-81400000D03*
X209500000Y-98400000D03*
X218500000Y-98400000D03*
%TD*%
D14*
%TO.C,C42*%
X230500000Y-130250000D03*
X230500000Y-145250000D03*
%TD*%
%TO.C,C24*%
X230500000Y-81000000D03*
X230500000Y-96000000D03*
%TD*%
D25*
%TO.C,J4*%
X100950000Y-120500000D03*
D17*
X100950000Y-115500000D03*
%TD*%
D18*
%TO.C,C41*%
X137462500Y-145750000D03*
X139537500Y-145750000D03*
%TD*%
D13*
%TO.C,L4*%
X214000000Y-125450000D03*
X209500000Y-108450000D03*
X218500000Y-108450000D03*
%TD*%
%TO.C,L2*%
X207500000Y-78600000D03*
X203000000Y-61600000D03*
X212000000Y-61600000D03*
%TD*%
D11*
%TO.C,+3.3V*%
X108750000Y-103500000D03*
%TD*%
D26*
%TO.C,D4*%
X162525000Y-143500000D03*
X160475000Y-143500000D03*
%TD*%
D27*
%TO.C,R4*%
X144250000Y-145750000D03*
X142250000Y-145750000D03*
%TD*%
%TO.C,R11*%
X139500000Y-143500000D03*
X137500000Y-143500000D03*
%TD*%
D26*
%TO.C,D5*%
X153400000Y-143500000D03*
X151350000Y-143500000D03*
%TD*%
D11*
%TO.C,PVDD*%
X154000000Y-62750000D03*
%TD*%
D28*
%TO.C,C44*%
X149512500Y-111900000D03*
X151237500Y-111900000D03*
%TD*%
D29*
%TO.C,R7*%
X136750000Y-99750000D03*
X138750000Y-99750000D03*
%TD*%
D21*
%TO.C,C36*%
X151237500Y-113400000D03*
X149512500Y-113400000D03*
%TD*%
D28*
%TO.C,C28*%
X149512500Y-93190000D03*
X151237500Y-93190000D03*
%TD*%
D11*
%TO.C,OUTB*%
X242000000Y-80000000D03*
%TD*%
D26*
%TO.C,D3*%
X144275000Y-143500000D03*
X142225000Y-143500000D03*
%TD*%
D29*
%TO.C,R8*%
X136750000Y-101700000D03*
X138750000Y-101700000D03*
%TD*%
D11*
%TO.C,IN_A*%
X103500000Y-81000000D03*
%TD*%
D14*
%TO.C,C39*%
X230500000Y-111000000D03*
X230500000Y-126000000D03*
%TD*%
D16*
%TO.C,J2*%
X253900000Y-75000000D03*
D17*
X253900000Y-80000000D03*
%TD*%
D25*
%TO.C,J1*%
X100950000Y-91250000D03*
D17*
X100950000Y-86250000D03*
%TD*%
D30*
%TO.C,C32*%
X143162500Y-112400000D03*
X141087500Y-112400000D03*
%TD*%
D31*
%TO.C,J3*%
X143750000Y-60577500D03*
D17*
X148750000Y-60577500D03*
%TD*%
D18*
%TO.C,C12*%
X133162500Y-66500000D03*
X135237500Y-66500000D03*
%TD*%
M02*
