%TF.GenerationSoftware,KiCad,Pcbnew,9.0.3*%
%TF.CreationDate,2026-01-19T14:18:09+02:00*%
%TF.ProjectId,amplifier,616d706c-6966-4696-9572-2e6b69636164,v0.1*%
%TF.SameCoordinates,Original*%
%TF.FileFunction,Drillmap*%
%TF.FilePolarity,Positive*%
%FSLAX45Y45*%
G04 Gerber Fmt 4.5, Leading zero omitted, Abs format (unit mm)*
G04 Created by KiCad (PCBNEW 9.0.3) date 2026-01-19 14:18:09*
%MOMM*%
%LPD*%
G01*
G04 APERTURE LIST*
%ADD10C,0.050000*%
%ADD11C,0.200000*%
%ADD12C,0.100000*%
%ADD13C,0.120000*%
%ADD14C,0.130000*%
%ADD15C,0.317500*%
G04 APERTURE END LIST*
D10*
X26250000Y-5850000D02*
X26250000Y-14850000D01*
X26250000Y-14850000D02*
G75*
G02*
X25750000Y-15350000I-500000J0D01*
G01*
X9250000Y-5850000D02*
G75*
G02*
X9750000Y-5350000I500000J0D01*
G01*
X25750000Y-5350000D02*
G75*
G02*
X26250000Y-5850000I0J-500000D01*
G01*
X9250000Y-14850000D02*
X9250000Y-5850000D01*
X9750000Y-15350000D02*
G75*
G02*
X9250000Y-14850000I0J500000D01*
G01*
X9750000Y-5350000D02*
X25750000Y-5350000D01*
X25750000Y-15350000D02*
X9750000Y-15350000D01*
D11*
D12*
X10660000Y-8585000D02*
X10690000Y-8615000D01*
X10690000Y-8585000D02*
X10660000Y-8615000D01*
X10685000Y-7860000D02*
X10715000Y-7890000D01*
X10715000Y-7860000D02*
X10685000Y-7890000D01*
X10685000Y-8110000D02*
X10715000Y-8140000D01*
X10715000Y-8110000D02*
X10685000Y-8140000D01*
X10710000Y-7360000D02*
X10740000Y-7390000D01*
X10740000Y-7360000D02*
X10710000Y-7390000D01*
X10960000Y-6660000D02*
X10990000Y-6690000D01*
X10990000Y-6660000D02*
X10960000Y-6690000D01*
X10960000Y-6935000D02*
X10990000Y-6965000D01*
X10990000Y-6935000D02*
X10960000Y-6965000D01*
X11360000Y-11385000D02*
X11390000Y-11415000D01*
X11390000Y-11385000D02*
X11360000Y-11415000D01*
X11610000Y-6935000D02*
X11640000Y-6965000D01*
X11640000Y-6935000D02*
X11610000Y-6965000D01*
X11610000Y-7135000D02*
X11640000Y-7165000D01*
X11640000Y-7135000D02*
X11610000Y-7165000D01*
X11610000Y-7535000D02*
X11640000Y-7565000D01*
X11640000Y-7535000D02*
X11610000Y-7565000D01*
X11760000Y-8935000D02*
X11790000Y-8965000D01*
X11790000Y-8935000D02*
X11760000Y-8965000D01*
X11835000Y-6735000D02*
X11865000Y-6765000D01*
X11865000Y-6735000D02*
X11835000Y-6765000D01*
X11835000Y-7135000D02*
X11865000Y-7165000D01*
X11865000Y-7135000D02*
X11835000Y-7165000D01*
X11835000Y-7535000D02*
X11865000Y-7565000D01*
X11865000Y-7535000D02*
X11835000Y-7565000D01*
X11835000Y-8485000D02*
X11865000Y-8515000D01*
X11865000Y-8485000D02*
X11835000Y-8515000D01*
X12085000Y-8585000D02*
X12115000Y-8615000D01*
X12115000Y-8585000D02*
X12085000Y-8615000D01*
X12885000Y-8635000D02*
X12915000Y-8665000D01*
X12915000Y-8635000D02*
X12885000Y-8665000D01*
X12885000Y-9035000D02*
X12915000Y-9065000D01*
X12915000Y-9035000D02*
X12885000Y-9065000D01*
X12960000Y-8835000D02*
X12990000Y-8865000D01*
X12990000Y-8835000D02*
X12960000Y-8865000D01*
X13085000Y-9810000D02*
X13115000Y-9840000D01*
X13115000Y-9810000D02*
X13085000Y-9840000D01*
X13085000Y-10635000D02*
X13115000Y-10665000D01*
X13115000Y-10635000D02*
X13085000Y-10665000D01*
X13085000Y-11135000D02*
X13115000Y-11165000D01*
X13115000Y-11135000D02*
X13085000Y-11165000D01*
X13110000Y-9385000D02*
X13140000Y-9415000D01*
X13140000Y-9385000D02*
X13110000Y-9415000D01*
X13410000Y-10885000D02*
X13440000Y-10915000D01*
X13440000Y-10885000D02*
X13410000Y-10915000D01*
X13435000Y-10060000D02*
X13465000Y-10090000D01*
X13465000Y-10060000D02*
X13435000Y-10090000D01*
X13435000Y-10260000D02*
X13465000Y-10290000D01*
X13465000Y-10260000D02*
X13435000Y-10290000D01*
X13435000Y-10460000D02*
X13465000Y-10490000D01*
X13465000Y-10460000D02*
X13435000Y-10490000D01*
X13485000Y-9710000D02*
X13515000Y-9740000D01*
X13515000Y-9710000D02*
X13485000Y-9740000D01*
X13510000Y-8935000D02*
X13540000Y-8965000D01*
X13540000Y-8935000D02*
X13510000Y-8965000D01*
X13565000Y-7135000D02*
X13595000Y-7165000D01*
X13595000Y-7135000D02*
X13565000Y-7165000D01*
X13660000Y-10885000D02*
X13690000Y-10915000D01*
X13690000Y-10885000D02*
X13660000Y-10915000D01*
X13685000Y-8935000D02*
X13715000Y-8965000D01*
X13715000Y-8935000D02*
X13685000Y-8965000D01*
X13710000Y-9585000D02*
X13740000Y-9615000D01*
X13740000Y-9585000D02*
X13710000Y-9615000D01*
X13810000Y-11335000D02*
X13840000Y-11365000D01*
X13840000Y-11335000D02*
X13810000Y-11365000D01*
X13885000Y-8935000D02*
X13915000Y-8965000D01*
X13915000Y-8935000D02*
X13885000Y-8965000D01*
X13960000Y-11085000D02*
X13990000Y-11115000D01*
X13990000Y-11085000D02*
X13960000Y-11115000D01*
X14076250Y-10551250D02*
X14106250Y-10581250D01*
X14106250Y-10551250D02*
X14076250Y-10581250D01*
X14085000Y-8935000D02*
X14115000Y-8965000D01*
X14115000Y-8935000D02*
X14085000Y-8965000D01*
X14085000Y-14110000D02*
X14115000Y-14140000D01*
X14115000Y-14110000D02*
X14085000Y-14140000D01*
X14093750Y-11335000D02*
X14123750Y-11365000D01*
X14123750Y-11335000D02*
X14093750Y-11365000D01*
X14185000Y-13785000D02*
X14215000Y-13815000D01*
X14215000Y-13785000D02*
X14185000Y-13815000D01*
X14285000Y-12335000D02*
X14315000Y-12365000D01*
X14315000Y-12335000D02*
X14285000Y-12365000D01*
X14360000Y-8935000D02*
X14390000Y-8965000D01*
X14390000Y-8935000D02*
X14360000Y-8965000D01*
X14410000Y-9810000D02*
X14440000Y-9840000D01*
X14440000Y-9810000D02*
X14410000Y-9840000D01*
X14410000Y-10335000D02*
X14440000Y-10365000D01*
X14440000Y-10335000D02*
X14410000Y-10365000D01*
X14410000Y-10435000D02*
X14440000Y-10465000D01*
X14440000Y-10435000D02*
X14410000Y-10465000D01*
X14410000Y-10735000D02*
X14440000Y-10765000D01*
X14440000Y-10735000D02*
X14410000Y-10765000D01*
X14412500Y-10875000D02*
X14442500Y-10905000D01*
X14442500Y-10875000D02*
X14412500Y-10905000D01*
X14412500Y-10975000D02*
X14442500Y-11005000D01*
X14442500Y-10975000D02*
X14412500Y-11005000D01*
X14460000Y-9160000D02*
X14490000Y-9190000D01*
X14490000Y-9160000D02*
X14460000Y-9190000D01*
X14485000Y-10810000D02*
X14515000Y-10840000D01*
X14515000Y-10810000D02*
X14485000Y-10840000D01*
X14560000Y-11560000D02*
X14590000Y-11590000D01*
X14590000Y-11560000D02*
X14560000Y-11590000D01*
X14560000Y-13210000D02*
X14590000Y-13240000D01*
X14590000Y-13210000D02*
X14560000Y-13240000D01*
X14685000Y-14135000D02*
X14715000Y-14165000D01*
X14715000Y-14135000D02*
X14685000Y-14165000D01*
X14760000Y-10135000D02*
X14790000Y-10165000D01*
X14790000Y-10135000D02*
X14760000Y-10165000D01*
X14760000Y-10205000D02*
X14790000Y-10235000D01*
X14790000Y-10205000D02*
X14760000Y-10235000D01*
X14760000Y-10510000D02*
X14790000Y-10540000D01*
X14790000Y-10510000D02*
X14760000Y-10540000D01*
X14766707Y-10439116D02*
X14796707Y-10469116D01*
X14796707Y-10439116D02*
X14766707Y-10469116D01*
X14785000Y-10673750D02*
X14815000Y-10703750D01*
X14815000Y-10673750D02*
X14785000Y-10703750D01*
X14785000Y-10733750D02*
X14815000Y-10763750D01*
X14815000Y-10733750D02*
X14785000Y-10763750D01*
X14785000Y-13735000D02*
X14815000Y-13765000D01*
X14815000Y-13735000D02*
X14785000Y-13765000D01*
X14807500Y-9913750D02*
X14837500Y-9943750D01*
X14837500Y-9913750D02*
X14807500Y-9943750D01*
X14807500Y-9973750D02*
X14837500Y-10003750D01*
X14837500Y-9973750D02*
X14807500Y-10003750D01*
X14835000Y-10160000D02*
X14865000Y-10190000D01*
X14865000Y-10160000D02*
X14835000Y-10190000D01*
X14835000Y-10233750D02*
X14865000Y-10263750D01*
X14865000Y-10233750D02*
X14835000Y-10263750D01*
X14835000Y-10423750D02*
X14865000Y-10453750D01*
X14865000Y-10423750D02*
X14835000Y-10453750D01*
X14835000Y-10483750D02*
X14865000Y-10513750D01*
X14865000Y-10483750D02*
X14835000Y-10513750D01*
X14860000Y-10673750D02*
X14890000Y-10703750D01*
X14890000Y-10673750D02*
X14860000Y-10703750D01*
X14860000Y-10735000D02*
X14890000Y-10765000D01*
X14890000Y-10735000D02*
X14860000Y-10765000D01*
X14860000Y-11560000D02*
X14890000Y-11590000D01*
X14890000Y-11560000D02*
X14860000Y-11590000D01*
X14867500Y-9913750D02*
X14897500Y-9943750D01*
X14897500Y-9913750D02*
X14867500Y-9943750D01*
X14867500Y-9973750D02*
X14897500Y-10003750D01*
X14897500Y-9973750D02*
X14867500Y-10003750D01*
X14935000Y-14335000D02*
X14965000Y-14365000D01*
X14965000Y-14335000D02*
X14935000Y-14365000D01*
X15107500Y-9943750D02*
X15137500Y-9973750D01*
X15137500Y-9943750D02*
X15107500Y-9973750D01*
X15107500Y-10233750D02*
X15137500Y-10263750D01*
X15137500Y-10233750D02*
X15107500Y-10263750D01*
X15107500Y-10423750D02*
X15137500Y-10453750D01*
X15137500Y-10423750D02*
X15107500Y-10453750D01*
X15107500Y-10703750D02*
X15137500Y-10733750D01*
X15137500Y-10703750D02*
X15107500Y-10733750D01*
X15147500Y-10743750D02*
X15177500Y-10773750D01*
X15177500Y-10743750D02*
X15147500Y-10773750D01*
X15157500Y-9893750D02*
X15187500Y-9923750D01*
X15187500Y-9893750D02*
X15157500Y-9923750D01*
X15167500Y-10233750D02*
X15197500Y-10263750D01*
X15197500Y-10233750D02*
X15167500Y-10263750D01*
X15167500Y-10423750D02*
X15197500Y-10453750D01*
X15197500Y-10423750D02*
X15167500Y-10453750D01*
X15410000Y-13510000D02*
X15440000Y-13540000D01*
X15440000Y-13510000D02*
X15410000Y-13540000D01*
X15410000Y-13885000D02*
X15440000Y-13915000D01*
X15440000Y-13885000D02*
X15410000Y-13915000D01*
X15835000Y-14335000D02*
X15865000Y-14365000D01*
X15865000Y-14335000D02*
X15835000Y-14365000D01*
X16310000Y-13510000D02*
X16340000Y-13540000D01*
X16340000Y-13510000D02*
X16310000Y-13540000D01*
X16335000Y-13885000D02*
X16365000Y-13915000D01*
X16365000Y-13885000D02*
X16335000Y-13915000D01*
X19855000Y-5965000D02*
X19885000Y-5995000D01*
X19885000Y-5965000D02*
X19855000Y-5995000D01*
X19855000Y-6065000D02*
X19885000Y-6095000D01*
X19885000Y-6065000D02*
X19855000Y-6095000D01*
X19865000Y-14665000D02*
X19895000Y-14695000D01*
X19895000Y-14665000D02*
X19865000Y-14695000D01*
X19875000Y-14525000D02*
X19905000Y-14555000D01*
X19905000Y-14525000D02*
X19875000Y-14555000D01*
X19945000Y-5915000D02*
X19975000Y-5945000D01*
X19975000Y-5915000D02*
X19945000Y-5945000D01*
X19945000Y-6015000D02*
X19975000Y-6045000D01*
X19975000Y-6015000D02*
X19945000Y-6045000D01*
X19945000Y-6125000D02*
X19975000Y-6155000D01*
X19975000Y-6125000D02*
X19945000Y-6155000D01*
X19945000Y-14475000D02*
X19975000Y-14505000D01*
X19975000Y-14475000D02*
X19945000Y-14505000D01*
X19945000Y-14585000D02*
X19975000Y-14615000D01*
X19975000Y-14585000D02*
X19945000Y-14615000D01*
X19945000Y-14695000D02*
X19975000Y-14725000D01*
X19975000Y-14695000D02*
X19945000Y-14725000D01*
X20465000Y-9865000D02*
X20495000Y-9895000D01*
X20495000Y-9865000D02*
X20465000Y-9895000D01*
X20475000Y-9995000D02*
X20505000Y-10025000D01*
X20505000Y-9995000D02*
X20475000Y-10025000D01*
X20475000Y-10645000D02*
X20505000Y-10675000D01*
X20505000Y-10645000D02*
X20475000Y-10675000D01*
X20475000Y-10785000D02*
X20505000Y-10815000D01*
X20505000Y-10785000D02*
X20475000Y-10815000D01*
X20575000Y-9805000D02*
X20605000Y-9835000D01*
X20605000Y-9805000D02*
X20575000Y-9835000D01*
X20575000Y-9915000D02*
X20605000Y-9945000D01*
X20605000Y-9915000D02*
X20575000Y-9945000D01*
X20575000Y-10035000D02*
X20605000Y-10065000D01*
X20605000Y-10035000D02*
X20575000Y-10065000D01*
X20585000Y-10595000D02*
X20615000Y-10625000D01*
X20615000Y-10595000D02*
X20585000Y-10625000D01*
X20585000Y-10725000D02*
X20615000Y-10755000D01*
X20615000Y-10725000D02*
X20585000Y-10755000D01*
X20585000Y-10855000D02*
X20615000Y-10885000D01*
X20615000Y-10855000D02*
X20585000Y-10885000D01*
X14056875Y-9688125D02*
G75*
G02*
X14016875Y-9688125I-20000J0D01*
G01*
X14016875Y-9688125D02*
G75*
G02*
X14056875Y-9688125I20000J0D01*
G01*
X14257500Y-9453750D02*
G75*
G02*
X14217500Y-9453750I-20000J0D01*
G01*
X14217500Y-9453750D02*
G75*
G02*
X14257500Y-9453750I20000J0D01*
G01*
X14745000Y-13025000D02*
G75*
G02*
X14705000Y-13025000I-20000J0D01*
G01*
X14705000Y-13025000D02*
G75*
G02*
X14745000Y-13025000I20000J0D01*
G01*
X15220000Y-13025000D02*
G75*
G02*
X15180000Y-13025000I-20000J0D01*
G01*
X15180000Y-13025000D02*
G75*
G02*
X15220000Y-13025000I20000J0D01*
G01*
X10350000Y-8050000D02*
X10350000Y-8150000D01*
X10300000Y-8100000D02*
X10400000Y-8100000D01*
X10350000Y-9600000D02*
X10350000Y-9700000D01*
X10300000Y-9650000D02*
X10400000Y-9650000D01*
X10350000Y-10975000D02*
X10350000Y-11075000D01*
X10300000Y-11025000D02*
X10400000Y-11025000D01*
X10350000Y-12525000D02*
X10350000Y-12625000D01*
X10300000Y-12575000D02*
X10400000Y-12575000D01*
X10875000Y-8750000D02*
X10875000Y-8850000D01*
X10825000Y-8800000D02*
X10925000Y-8800000D01*
X10875000Y-10300000D02*
X10875000Y-10400000D01*
X10825000Y-10350000D02*
X10925000Y-10350000D01*
X12230000Y-6530000D02*
X12230000Y-6630000D01*
X12180000Y-6580000D02*
X12280000Y-6580000D01*
X13850000Y-6225000D02*
X13850000Y-6325000D01*
X13800000Y-6275000D02*
X13900000Y-6275000D01*
X15400000Y-6225000D02*
X15400000Y-6325000D01*
X15350000Y-6275000D02*
X15450000Y-6275000D01*
X24200000Y-7450000D02*
X24200000Y-7550000D01*
X24150000Y-7500000D02*
X24250000Y-7500000D01*
X24200000Y-7950000D02*
X24200000Y-8050000D01*
X24150000Y-8000000D02*
X24250000Y-8000000D01*
X24200000Y-12800000D02*
X24200000Y-12900000D01*
X24150000Y-12850000D02*
X24250000Y-12850000D01*
X24200000Y-13300000D02*
X24200000Y-13400000D01*
X24150000Y-13350000D02*
X24250000Y-13350000D01*
D13*
X19267427Y-8892427D02*
X19267427Y-8807573D01*
X19182573Y-8807573D01*
X19182573Y-8892427D01*
X19267427Y-8892427D01*
X19267427Y-9642427D02*
X19267427Y-9557573D01*
X19182573Y-9557573D01*
X19182573Y-9642427D01*
X19267427Y-9642427D01*
X19267427Y-11141151D02*
X19267427Y-11056298D01*
X19182573Y-11056298D01*
X19182573Y-11141151D01*
X19267427Y-11141151D01*
X19267427Y-11891151D02*
X19267427Y-11806298D01*
X19182573Y-11806298D01*
X19182573Y-11891151D01*
X19267427Y-11891151D01*
X23092427Y-6217427D02*
X23092427Y-6132573D01*
X23007573Y-6132573D01*
X23007573Y-6217427D01*
X23092427Y-6217427D01*
X23092427Y-7717427D02*
X23092427Y-7632573D01*
X23007573Y-7632573D01*
X23007573Y-7717427D01*
X23092427Y-7717427D01*
X23092427Y-8142427D02*
X23092427Y-8057573D01*
X23007573Y-8057573D01*
X23007573Y-8142427D01*
X23092427Y-8142427D01*
X23092427Y-9642427D02*
X23092427Y-9557573D01*
X23007573Y-9557573D01*
X23007573Y-9642427D01*
X23092427Y-9642427D01*
X23092427Y-11142427D02*
X23092427Y-11057573D01*
X23007573Y-11057573D01*
X23007573Y-11142427D01*
X23092427Y-11142427D01*
X23092427Y-12642427D02*
X23092427Y-12557573D01*
X23007573Y-12557573D01*
X23007573Y-12642427D01*
X23092427Y-12642427D01*
X23092427Y-13067427D02*
X23092427Y-12982573D01*
X23007573Y-12982573D01*
X23007573Y-13067427D01*
X23092427Y-13067427D01*
X23092427Y-14567427D02*
X23092427Y-14482573D01*
X23007573Y-14482573D01*
X23007573Y-14567427D01*
X23092427Y-14567427D01*
D14*
X10095000Y-8690000D02*
X10160000Y-8625000D01*
X10095000Y-8560000D01*
X10030000Y-8625000D01*
X10095000Y-8690000D01*
X10095000Y-9190000D02*
X10160000Y-9125000D01*
X10095000Y-9060000D01*
X10030000Y-9125000D01*
X10095000Y-9190000D01*
X10095000Y-11615000D02*
X10160000Y-11550000D01*
X10095000Y-11485000D01*
X10030000Y-11550000D01*
X10095000Y-11615000D01*
X10095000Y-12115000D02*
X10160000Y-12050000D01*
X10095000Y-11985000D01*
X10030000Y-12050000D01*
X10095000Y-12115000D01*
X14375000Y-6122750D02*
X14440000Y-6057750D01*
X14375000Y-5992750D01*
X14310000Y-6057750D01*
X14375000Y-6122750D01*
X14875000Y-6122750D02*
X14940000Y-6057750D01*
X14875000Y-5992750D01*
X14810000Y-6057750D01*
X14875000Y-6122750D01*
X25390000Y-7565000D02*
X25455000Y-7500000D01*
X25390000Y-7435000D01*
X25325000Y-7500000D01*
X25390000Y-7565000D01*
X25390000Y-8065000D02*
X25455000Y-8000000D01*
X25390000Y-7935000D01*
X25325000Y-8000000D01*
X25390000Y-8065000D01*
X25390000Y-12915000D02*
X25455000Y-12850000D01*
X25390000Y-12785000D01*
X25325000Y-12850000D01*
X25390000Y-12915000D01*
X25390000Y-13415000D02*
X25455000Y-13350000D01*
X25390000Y-13285000D01*
X25325000Y-13350000D01*
X25390000Y-13415000D01*
D15*
X11310000Y-13331250D02*
X11627500Y-13648750D01*
X11627500Y-13331250D02*
X11310000Y-13648750D01*
X11627500Y-13490000D02*
G75*
G02*
X11310000Y-13490000I-158750J0D01*
G01*
X11310000Y-13490000D02*
G75*
G02*
X11627500Y-13490000I158750J0D01*
G01*
X17610000Y-7031250D02*
X17927500Y-7348750D01*
X17927500Y-7031250D02*
X17610000Y-7348750D01*
X17927500Y-7190000D02*
G75*
G02*
X17610000Y-7190000I-158750J0D01*
G01*
X17610000Y-7190000D02*
G75*
G02*
X17927500Y-7190000I158750J0D01*
G01*
D11*
X9508277Y-15663984D02*
X9508277Y-15463984D01*
X9508277Y-15463984D02*
X9555896Y-15463984D01*
X9555896Y-15463984D02*
X9584467Y-15473508D01*
X9584467Y-15473508D02*
X9603515Y-15492555D01*
X9603515Y-15492555D02*
X9613039Y-15511603D01*
X9613039Y-15511603D02*
X9622563Y-15549698D01*
X9622563Y-15549698D02*
X9622563Y-15578269D01*
X9622563Y-15578269D02*
X9613039Y-15616365D01*
X9613039Y-15616365D02*
X9603515Y-15635412D01*
X9603515Y-15635412D02*
X9584467Y-15654460D01*
X9584467Y-15654460D02*
X9555896Y-15663984D01*
X9555896Y-15663984D02*
X9508277Y-15663984D01*
X9708277Y-15663984D02*
X9708277Y-15530650D01*
X9708277Y-15568746D02*
X9717801Y-15549698D01*
X9717801Y-15549698D02*
X9727324Y-15540174D01*
X9727324Y-15540174D02*
X9746372Y-15530650D01*
X9746372Y-15530650D02*
X9765420Y-15530650D01*
X9832086Y-15663984D02*
X9832086Y-15530650D01*
X9832086Y-15463984D02*
X9822563Y-15473508D01*
X9822563Y-15473508D02*
X9832086Y-15483031D01*
X9832086Y-15483031D02*
X9841610Y-15473508D01*
X9841610Y-15473508D02*
X9832086Y-15463984D01*
X9832086Y-15463984D02*
X9832086Y-15483031D01*
X9955896Y-15663984D02*
X9936848Y-15654460D01*
X9936848Y-15654460D02*
X9927324Y-15635412D01*
X9927324Y-15635412D02*
X9927324Y-15463984D01*
X10060658Y-15663984D02*
X10041610Y-15654460D01*
X10041610Y-15654460D02*
X10032086Y-15635412D01*
X10032086Y-15635412D02*
X10032086Y-15463984D01*
X10289229Y-15663984D02*
X10289229Y-15463984D01*
X10289229Y-15463984D02*
X10355896Y-15606841D01*
X10355896Y-15606841D02*
X10422563Y-15463984D01*
X10422563Y-15463984D02*
X10422563Y-15663984D01*
X10603515Y-15663984D02*
X10603515Y-15559222D01*
X10603515Y-15559222D02*
X10593991Y-15540174D01*
X10593991Y-15540174D02*
X10574944Y-15530650D01*
X10574944Y-15530650D02*
X10536848Y-15530650D01*
X10536848Y-15530650D02*
X10517801Y-15540174D01*
X10603515Y-15654460D02*
X10584467Y-15663984D01*
X10584467Y-15663984D02*
X10536848Y-15663984D01*
X10536848Y-15663984D02*
X10517801Y-15654460D01*
X10517801Y-15654460D02*
X10508277Y-15635412D01*
X10508277Y-15635412D02*
X10508277Y-15616365D01*
X10508277Y-15616365D02*
X10517801Y-15597317D01*
X10517801Y-15597317D02*
X10536848Y-15587793D01*
X10536848Y-15587793D02*
X10584467Y-15587793D01*
X10584467Y-15587793D02*
X10603515Y-15578269D01*
X10698753Y-15530650D02*
X10698753Y-15730650D01*
X10698753Y-15540174D02*
X10717801Y-15530650D01*
X10717801Y-15530650D02*
X10755896Y-15530650D01*
X10755896Y-15530650D02*
X10774944Y-15540174D01*
X10774944Y-15540174D02*
X10784467Y-15549698D01*
X10784467Y-15549698D02*
X10793991Y-15568746D01*
X10793991Y-15568746D02*
X10793991Y-15625888D01*
X10793991Y-15625888D02*
X10784467Y-15644936D01*
X10784467Y-15644936D02*
X10774944Y-15654460D01*
X10774944Y-15654460D02*
X10755896Y-15663984D01*
X10755896Y-15663984D02*
X10717801Y-15663984D01*
X10717801Y-15663984D02*
X10698753Y-15654460D01*
X10879705Y-15644936D02*
X10889229Y-15654460D01*
X10889229Y-15654460D02*
X10879705Y-15663984D01*
X10879705Y-15663984D02*
X10870182Y-15654460D01*
X10870182Y-15654460D02*
X10879705Y-15644936D01*
X10879705Y-15644936D02*
X10879705Y-15663984D01*
X10879705Y-15540174D02*
X10889229Y-15549698D01*
X10889229Y-15549698D02*
X10879705Y-15559222D01*
X10879705Y-15559222D02*
X10870182Y-15549698D01*
X10870182Y-15549698D02*
X10879705Y-15540174D01*
X10879705Y-15540174D02*
X10879705Y-15559222D01*
D12*
X9217500Y-15977500D02*
X9247500Y-16007500D01*
X9247500Y-15977500D02*
X9217500Y-16007500D01*
D11*
X9546372Y-15883984D02*
X9565420Y-15883984D01*
X9565420Y-15883984D02*
X9584467Y-15893508D01*
X9584467Y-15893508D02*
X9593991Y-15903031D01*
X9593991Y-15903031D02*
X9603515Y-15922079D01*
X9603515Y-15922079D02*
X9613039Y-15960174D01*
X9613039Y-15960174D02*
X9613039Y-16007793D01*
X9613039Y-16007793D02*
X9603515Y-16045888D01*
X9603515Y-16045888D02*
X9593991Y-16064936D01*
X9593991Y-16064936D02*
X9584467Y-16074460D01*
X9584467Y-16074460D02*
X9565420Y-16083984D01*
X9565420Y-16083984D02*
X9546372Y-16083984D01*
X9546372Y-16083984D02*
X9527324Y-16074460D01*
X9527324Y-16074460D02*
X9517801Y-16064936D01*
X9517801Y-16064936D02*
X9508277Y-16045888D01*
X9508277Y-16045888D02*
X9498753Y-16007793D01*
X9498753Y-16007793D02*
X9498753Y-15960174D01*
X9498753Y-15960174D02*
X9508277Y-15922079D01*
X9508277Y-15922079D02*
X9517801Y-15903031D01*
X9517801Y-15903031D02*
X9527324Y-15893508D01*
X9527324Y-15893508D02*
X9546372Y-15883984D01*
X9698753Y-16064936D02*
X9708277Y-16074460D01*
X9708277Y-16074460D02*
X9698753Y-16083984D01*
X9698753Y-16083984D02*
X9689229Y-16074460D01*
X9689229Y-16074460D02*
X9698753Y-16064936D01*
X9698753Y-16064936D02*
X9698753Y-16083984D01*
X9774944Y-15883984D02*
X9898753Y-15883984D01*
X9898753Y-15883984D02*
X9832086Y-15960174D01*
X9832086Y-15960174D02*
X9860658Y-15960174D01*
X9860658Y-15960174D02*
X9879705Y-15969698D01*
X9879705Y-15969698D02*
X9889229Y-15979222D01*
X9889229Y-15979222D02*
X9898753Y-15998269D01*
X9898753Y-15998269D02*
X9898753Y-16045888D01*
X9898753Y-16045888D02*
X9889229Y-16064936D01*
X9889229Y-16064936D02*
X9879705Y-16074460D01*
X9879705Y-16074460D02*
X9860658Y-16083984D01*
X9860658Y-16083984D02*
X9803515Y-16083984D01*
X9803515Y-16083984D02*
X9784467Y-16074460D01*
X9784467Y-16074460D02*
X9774944Y-16064936D01*
X10022563Y-15883984D02*
X10041610Y-15883984D01*
X10041610Y-15883984D02*
X10060658Y-15893508D01*
X10060658Y-15893508D02*
X10070182Y-15903031D01*
X10070182Y-15903031D02*
X10079705Y-15922079D01*
X10079705Y-15922079D02*
X10089229Y-15960174D01*
X10089229Y-15960174D02*
X10089229Y-16007793D01*
X10089229Y-16007793D02*
X10079705Y-16045888D01*
X10079705Y-16045888D02*
X10070182Y-16064936D01*
X10070182Y-16064936D02*
X10060658Y-16074460D01*
X10060658Y-16074460D02*
X10041610Y-16083984D01*
X10041610Y-16083984D02*
X10022563Y-16083984D01*
X10022563Y-16083984D02*
X10003515Y-16074460D01*
X10003515Y-16074460D02*
X9993991Y-16064936D01*
X9993991Y-16064936D02*
X9984467Y-16045888D01*
X9984467Y-16045888D02*
X9974944Y-16007793D01*
X9974944Y-16007793D02*
X9974944Y-15960174D01*
X9974944Y-15960174D02*
X9984467Y-15922079D01*
X9984467Y-15922079D02*
X9993991Y-15903031D01*
X9993991Y-15903031D02*
X10003515Y-15893508D01*
X10003515Y-15893508D02*
X10022563Y-15883984D01*
X10213039Y-15883984D02*
X10232086Y-15883984D01*
X10232086Y-15883984D02*
X10251134Y-15893508D01*
X10251134Y-15893508D02*
X10260658Y-15903031D01*
X10260658Y-15903031D02*
X10270182Y-15922079D01*
X10270182Y-15922079D02*
X10279705Y-15960174D01*
X10279705Y-15960174D02*
X10279705Y-16007793D01*
X10279705Y-16007793D02*
X10270182Y-16045888D01*
X10270182Y-16045888D02*
X10260658Y-16064936D01*
X10260658Y-16064936D02*
X10251134Y-16074460D01*
X10251134Y-16074460D02*
X10232086Y-16083984D01*
X10232086Y-16083984D02*
X10213039Y-16083984D01*
X10213039Y-16083984D02*
X10193991Y-16074460D01*
X10193991Y-16074460D02*
X10184467Y-16064936D01*
X10184467Y-16064936D02*
X10174944Y-16045888D01*
X10174944Y-16045888D02*
X10165420Y-16007793D01*
X10165420Y-16007793D02*
X10165420Y-15960174D01*
X10165420Y-15960174D02*
X10174944Y-15922079D01*
X10174944Y-15922079D02*
X10184467Y-15903031D01*
X10184467Y-15903031D02*
X10193991Y-15893508D01*
X10193991Y-15893508D02*
X10213039Y-15883984D01*
X10365420Y-16083984D02*
X10365420Y-15950650D01*
X10365420Y-15969698D02*
X10374944Y-15960174D01*
X10374944Y-15960174D02*
X10393991Y-15950650D01*
X10393991Y-15950650D02*
X10422563Y-15950650D01*
X10422563Y-15950650D02*
X10441610Y-15960174D01*
X10441610Y-15960174D02*
X10451134Y-15979222D01*
X10451134Y-15979222D02*
X10451134Y-16083984D01*
X10451134Y-15979222D02*
X10460658Y-15960174D01*
X10460658Y-15960174D02*
X10479705Y-15950650D01*
X10479705Y-15950650D02*
X10508277Y-15950650D01*
X10508277Y-15950650D02*
X10527325Y-15960174D01*
X10527325Y-15960174D02*
X10536848Y-15979222D01*
X10536848Y-15979222D02*
X10536848Y-16083984D01*
X10632086Y-16083984D02*
X10632086Y-15950650D01*
X10632086Y-15969698D02*
X10641610Y-15960174D01*
X10641610Y-15960174D02*
X10660658Y-15950650D01*
X10660658Y-15950650D02*
X10689229Y-15950650D01*
X10689229Y-15950650D02*
X10708277Y-15960174D01*
X10708277Y-15960174D02*
X10717801Y-15979222D01*
X10717801Y-15979222D02*
X10717801Y-16083984D01*
X10717801Y-15979222D02*
X10727325Y-15960174D01*
X10727325Y-15960174D02*
X10746372Y-15950650D01*
X10746372Y-15950650D02*
X10774944Y-15950650D01*
X10774944Y-15950650D02*
X10793991Y-15960174D01*
X10793991Y-15960174D02*
X10803515Y-15979222D01*
X10803515Y-15979222D02*
X10803515Y-16083984D01*
X11193991Y-15874460D02*
X11022563Y-16131603D01*
X11451134Y-15883984D02*
X11470182Y-15883984D01*
X11470182Y-15883984D02*
X11489229Y-15893508D01*
X11489229Y-15893508D02*
X11498753Y-15903031D01*
X11498753Y-15903031D02*
X11508277Y-15922079D01*
X11508277Y-15922079D02*
X11517801Y-15960174D01*
X11517801Y-15960174D02*
X11517801Y-16007793D01*
X11517801Y-16007793D02*
X11508277Y-16045888D01*
X11508277Y-16045888D02*
X11498753Y-16064936D01*
X11498753Y-16064936D02*
X11489229Y-16074460D01*
X11489229Y-16074460D02*
X11470182Y-16083984D01*
X11470182Y-16083984D02*
X11451134Y-16083984D01*
X11451134Y-16083984D02*
X11432086Y-16074460D01*
X11432086Y-16074460D02*
X11422563Y-16064936D01*
X11422563Y-16064936D02*
X11413039Y-16045888D01*
X11413039Y-16045888D02*
X11403515Y-16007793D01*
X11403515Y-16007793D02*
X11403515Y-15960174D01*
X11403515Y-15960174D02*
X11413039Y-15922079D01*
X11413039Y-15922079D02*
X11422563Y-15903031D01*
X11422563Y-15903031D02*
X11432086Y-15893508D01*
X11432086Y-15893508D02*
X11451134Y-15883984D01*
X11603515Y-16064936D02*
X11613039Y-16074460D01*
X11613039Y-16074460D02*
X11603515Y-16083984D01*
X11603515Y-16083984D02*
X11593991Y-16074460D01*
X11593991Y-16074460D02*
X11603515Y-16064936D01*
X11603515Y-16064936D02*
X11603515Y-16083984D01*
X11736848Y-15883984D02*
X11755896Y-15883984D01*
X11755896Y-15883984D02*
X11774944Y-15893508D01*
X11774944Y-15893508D02*
X11784467Y-15903031D01*
X11784467Y-15903031D02*
X11793991Y-15922079D01*
X11793991Y-15922079D02*
X11803515Y-15960174D01*
X11803515Y-15960174D02*
X11803515Y-16007793D01*
X11803515Y-16007793D02*
X11793991Y-16045888D01*
X11793991Y-16045888D02*
X11784467Y-16064936D01*
X11784467Y-16064936D02*
X11774944Y-16074460D01*
X11774944Y-16074460D02*
X11755896Y-16083984D01*
X11755896Y-16083984D02*
X11736848Y-16083984D01*
X11736848Y-16083984D02*
X11717801Y-16074460D01*
X11717801Y-16074460D02*
X11708277Y-16064936D01*
X11708277Y-16064936D02*
X11698753Y-16045888D01*
X11698753Y-16045888D02*
X11689229Y-16007793D01*
X11689229Y-16007793D02*
X11689229Y-15960174D01*
X11689229Y-15960174D02*
X11698753Y-15922079D01*
X11698753Y-15922079D02*
X11708277Y-15903031D01*
X11708277Y-15903031D02*
X11717801Y-15893508D01*
X11717801Y-15893508D02*
X11736848Y-15883984D01*
X11993991Y-16083984D02*
X11879706Y-16083984D01*
X11936848Y-16083984D02*
X11936848Y-15883984D01*
X11936848Y-15883984D02*
X11917801Y-15912555D01*
X11917801Y-15912555D02*
X11898753Y-15931603D01*
X11898753Y-15931603D02*
X11879706Y-15941127D01*
X12184467Y-16083984D02*
X12070182Y-16083984D01*
X12127325Y-16083984D02*
X12127325Y-15883984D01*
X12127325Y-15883984D02*
X12108277Y-15912555D01*
X12108277Y-15912555D02*
X12089229Y-15931603D01*
X12089229Y-15931603D02*
X12070182Y-15941127D01*
X12298753Y-15969698D02*
X12279706Y-15960174D01*
X12279706Y-15960174D02*
X12270182Y-15950650D01*
X12270182Y-15950650D02*
X12260658Y-15931603D01*
X12260658Y-15931603D02*
X12260658Y-15922079D01*
X12260658Y-15922079D02*
X12270182Y-15903031D01*
X12270182Y-15903031D02*
X12279706Y-15893508D01*
X12279706Y-15893508D02*
X12298753Y-15883984D01*
X12298753Y-15883984D02*
X12336848Y-15883984D01*
X12336848Y-15883984D02*
X12355896Y-15893508D01*
X12355896Y-15893508D02*
X12365420Y-15903031D01*
X12365420Y-15903031D02*
X12374944Y-15922079D01*
X12374944Y-15922079D02*
X12374944Y-15931603D01*
X12374944Y-15931603D02*
X12365420Y-15950650D01*
X12365420Y-15950650D02*
X12355896Y-15960174D01*
X12355896Y-15960174D02*
X12336848Y-15969698D01*
X12336848Y-15969698D02*
X12298753Y-15969698D01*
X12298753Y-15969698D02*
X12279706Y-15979222D01*
X12279706Y-15979222D02*
X12270182Y-15988746D01*
X12270182Y-15988746D02*
X12260658Y-16007793D01*
X12260658Y-16007793D02*
X12260658Y-16045888D01*
X12260658Y-16045888D02*
X12270182Y-16064936D01*
X12270182Y-16064936D02*
X12279706Y-16074460D01*
X12279706Y-16074460D02*
X12298753Y-16083984D01*
X12298753Y-16083984D02*
X12336848Y-16083984D01*
X12336848Y-16083984D02*
X12355896Y-16074460D01*
X12355896Y-16074460D02*
X12365420Y-16064936D01*
X12365420Y-16064936D02*
X12374944Y-16045888D01*
X12374944Y-16045888D02*
X12374944Y-16007793D01*
X12374944Y-16007793D02*
X12365420Y-15988746D01*
X12365420Y-15988746D02*
X12355896Y-15979222D01*
X12355896Y-15979222D02*
X12336848Y-15969698D01*
X12451134Y-15883984D02*
X12451134Y-15922079D01*
X12527325Y-15883984D02*
X12527325Y-15922079D01*
X12822563Y-16160174D02*
X12813039Y-16150650D01*
X12813039Y-16150650D02*
X12793991Y-16122079D01*
X12793991Y-16122079D02*
X12784468Y-16103031D01*
X12784468Y-16103031D02*
X12774944Y-16074460D01*
X12774944Y-16074460D02*
X12765420Y-16026841D01*
X12765420Y-16026841D02*
X12765420Y-15988746D01*
X12765420Y-15988746D02*
X12774944Y-15941127D01*
X12774944Y-15941127D02*
X12784468Y-15912555D01*
X12784468Y-15912555D02*
X12793991Y-15893508D01*
X12793991Y-15893508D02*
X12813039Y-15864936D01*
X12813039Y-15864936D02*
X12822563Y-15855412D01*
X13003515Y-16083984D02*
X12889229Y-16083984D01*
X12946372Y-16083984D02*
X12946372Y-15883984D01*
X12946372Y-15883984D02*
X12927325Y-15912555D01*
X12927325Y-15912555D02*
X12908277Y-15931603D01*
X12908277Y-15931603D02*
X12889229Y-15941127D01*
X13127325Y-15883984D02*
X13146372Y-15883984D01*
X13146372Y-15883984D02*
X13165420Y-15893508D01*
X13165420Y-15893508D02*
X13174944Y-15903031D01*
X13174944Y-15903031D02*
X13184468Y-15922079D01*
X13184468Y-15922079D02*
X13193991Y-15960174D01*
X13193991Y-15960174D02*
X13193991Y-16007793D01*
X13193991Y-16007793D02*
X13184468Y-16045888D01*
X13184468Y-16045888D02*
X13174944Y-16064936D01*
X13174944Y-16064936D02*
X13165420Y-16074460D01*
X13165420Y-16074460D02*
X13146372Y-16083984D01*
X13146372Y-16083984D02*
X13127325Y-16083984D01*
X13127325Y-16083984D02*
X13108277Y-16074460D01*
X13108277Y-16074460D02*
X13098753Y-16064936D01*
X13098753Y-16064936D02*
X13089229Y-16045888D01*
X13089229Y-16045888D02*
X13079706Y-16007793D01*
X13079706Y-16007793D02*
X13079706Y-15960174D01*
X13079706Y-15960174D02*
X13089229Y-15922079D01*
X13089229Y-15922079D02*
X13098753Y-15903031D01*
X13098753Y-15903031D02*
X13108277Y-15893508D01*
X13108277Y-15893508D02*
X13127325Y-15883984D01*
X13365420Y-15883984D02*
X13327325Y-15883984D01*
X13327325Y-15883984D02*
X13308277Y-15893508D01*
X13308277Y-15893508D02*
X13298753Y-15903031D01*
X13298753Y-15903031D02*
X13279706Y-15931603D01*
X13279706Y-15931603D02*
X13270182Y-15969698D01*
X13270182Y-15969698D02*
X13270182Y-16045888D01*
X13270182Y-16045888D02*
X13279706Y-16064936D01*
X13279706Y-16064936D02*
X13289229Y-16074460D01*
X13289229Y-16074460D02*
X13308277Y-16083984D01*
X13308277Y-16083984D02*
X13346372Y-16083984D01*
X13346372Y-16083984D02*
X13365420Y-16074460D01*
X13365420Y-16074460D02*
X13374944Y-16064936D01*
X13374944Y-16064936D02*
X13384468Y-16045888D01*
X13384468Y-16045888D02*
X13384468Y-15998269D01*
X13384468Y-15998269D02*
X13374944Y-15979222D01*
X13374944Y-15979222D02*
X13365420Y-15969698D01*
X13365420Y-15969698D02*
X13346372Y-15960174D01*
X13346372Y-15960174D02*
X13308277Y-15960174D01*
X13308277Y-15960174D02*
X13289229Y-15969698D01*
X13289229Y-15969698D02*
X13279706Y-15979222D01*
X13279706Y-15979222D02*
X13270182Y-15998269D01*
X13622563Y-16083984D02*
X13622563Y-15883984D01*
X13708277Y-16083984D02*
X13708277Y-15979222D01*
X13708277Y-15979222D02*
X13698753Y-15960174D01*
X13698753Y-15960174D02*
X13679706Y-15950650D01*
X13679706Y-15950650D02*
X13651134Y-15950650D01*
X13651134Y-15950650D02*
X13632087Y-15960174D01*
X13632087Y-15960174D02*
X13622563Y-15969698D01*
X13832087Y-16083984D02*
X13813039Y-16074460D01*
X13813039Y-16074460D02*
X13803515Y-16064936D01*
X13803515Y-16064936D02*
X13793991Y-16045888D01*
X13793991Y-16045888D02*
X13793991Y-15988746D01*
X13793991Y-15988746D02*
X13803515Y-15969698D01*
X13803515Y-15969698D02*
X13813039Y-15960174D01*
X13813039Y-15960174D02*
X13832087Y-15950650D01*
X13832087Y-15950650D02*
X13860658Y-15950650D01*
X13860658Y-15950650D02*
X13879706Y-15960174D01*
X13879706Y-15960174D02*
X13889230Y-15969698D01*
X13889230Y-15969698D02*
X13898753Y-15988746D01*
X13898753Y-15988746D02*
X13898753Y-16045888D01*
X13898753Y-16045888D02*
X13889230Y-16064936D01*
X13889230Y-16064936D02*
X13879706Y-16074460D01*
X13879706Y-16074460D02*
X13860658Y-16083984D01*
X13860658Y-16083984D02*
X13832087Y-16083984D01*
X14013039Y-16083984D02*
X13993991Y-16074460D01*
X13993991Y-16074460D02*
X13984468Y-16055412D01*
X13984468Y-16055412D02*
X13984468Y-15883984D01*
X14165420Y-16074460D02*
X14146372Y-16083984D01*
X14146372Y-16083984D02*
X14108277Y-16083984D01*
X14108277Y-16083984D02*
X14089230Y-16074460D01*
X14089230Y-16074460D02*
X14079706Y-16055412D01*
X14079706Y-16055412D02*
X14079706Y-15979222D01*
X14079706Y-15979222D02*
X14089230Y-15960174D01*
X14089230Y-15960174D02*
X14108277Y-15950650D01*
X14108277Y-15950650D02*
X14146372Y-15950650D01*
X14146372Y-15950650D02*
X14165420Y-15960174D01*
X14165420Y-15960174D02*
X14174944Y-15979222D01*
X14174944Y-15979222D02*
X14174944Y-15998269D01*
X14174944Y-15998269D02*
X14079706Y-16017317D01*
X14251134Y-16074460D02*
X14270182Y-16083984D01*
X14270182Y-16083984D02*
X14308277Y-16083984D01*
X14308277Y-16083984D02*
X14327325Y-16074460D01*
X14327325Y-16074460D02*
X14336849Y-16055412D01*
X14336849Y-16055412D02*
X14336849Y-16045888D01*
X14336849Y-16045888D02*
X14327325Y-16026841D01*
X14327325Y-16026841D02*
X14308277Y-16017317D01*
X14308277Y-16017317D02*
X14279706Y-16017317D01*
X14279706Y-16017317D02*
X14260658Y-16007793D01*
X14260658Y-16007793D02*
X14251134Y-15988746D01*
X14251134Y-15988746D02*
X14251134Y-15979222D01*
X14251134Y-15979222D02*
X14260658Y-15960174D01*
X14260658Y-15960174D02*
X14279706Y-15950650D01*
X14279706Y-15950650D02*
X14308277Y-15950650D01*
X14308277Y-15950650D02*
X14327325Y-15960174D01*
X14403515Y-16160174D02*
X14413039Y-16150650D01*
X14413039Y-16150650D02*
X14432087Y-16122079D01*
X14432087Y-16122079D02*
X14441611Y-16103031D01*
X14441611Y-16103031D02*
X14451134Y-16074460D01*
X14451134Y-16074460D02*
X14460658Y-16026841D01*
X14460658Y-16026841D02*
X14460658Y-15988746D01*
X14460658Y-15988746D02*
X14451134Y-15941127D01*
X14451134Y-15941127D02*
X14441611Y-15912555D01*
X14441611Y-15912555D02*
X14432087Y-15893508D01*
X14432087Y-15893508D02*
X14413039Y-15864936D01*
X14413039Y-15864936D02*
X14403515Y-15855412D01*
D12*
X9247500Y-16256500D02*
G75*
G02*
X9207500Y-16256500I-20000J0D01*
G01*
X9207500Y-16256500D02*
G75*
G02*
X9247500Y-16256500I20000J0D01*
G01*
D11*
X9546372Y-16147984D02*
X9565420Y-16147984D01*
X9565420Y-16147984D02*
X9584467Y-16157508D01*
X9584467Y-16157508D02*
X9593991Y-16167031D01*
X9593991Y-16167031D02*
X9603515Y-16186079D01*
X9603515Y-16186079D02*
X9613039Y-16224174D01*
X9613039Y-16224174D02*
X9613039Y-16271793D01*
X9613039Y-16271793D02*
X9603515Y-16309888D01*
X9603515Y-16309888D02*
X9593991Y-16328936D01*
X9593991Y-16328936D02*
X9584467Y-16338460D01*
X9584467Y-16338460D02*
X9565420Y-16347984D01*
X9565420Y-16347984D02*
X9546372Y-16347984D01*
X9546372Y-16347984D02*
X9527324Y-16338460D01*
X9527324Y-16338460D02*
X9517801Y-16328936D01*
X9517801Y-16328936D02*
X9508277Y-16309888D01*
X9508277Y-16309888D02*
X9498753Y-16271793D01*
X9498753Y-16271793D02*
X9498753Y-16224174D01*
X9498753Y-16224174D02*
X9508277Y-16186079D01*
X9508277Y-16186079D02*
X9517801Y-16167031D01*
X9517801Y-16167031D02*
X9527324Y-16157508D01*
X9527324Y-16157508D02*
X9546372Y-16147984D01*
X9698753Y-16328936D02*
X9708277Y-16338460D01*
X9708277Y-16338460D02*
X9698753Y-16347984D01*
X9698753Y-16347984D02*
X9689229Y-16338460D01*
X9689229Y-16338460D02*
X9698753Y-16328936D01*
X9698753Y-16328936D02*
X9698753Y-16347984D01*
X9879705Y-16214650D02*
X9879705Y-16347984D01*
X9832086Y-16138460D02*
X9784467Y-16281317D01*
X9784467Y-16281317D02*
X9908277Y-16281317D01*
X10022563Y-16147984D02*
X10041610Y-16147984D01*
X10041610Y-16147984D02*
X10060658Y-16157508D01*
X10060658Y-16157508D02*
X10070182Y-16167031D01*
X10070182Y-16167031D02*
X10079705Y-16186079D01*
X10079705Y-16186079D02*
X10089229Y-16224174D01*
X10089229Y-16224174D02*
X10089229Y-16271793D01*
X10089229Y-16271793D02*
X10079705Y-16309888D01*
X10079705Y-16309888D02*
X10070182Y-16328936D01*
X10070182Y-16328936D02*
X10060658Y-16338460D01*
X10060658Y-16338460D02*
X10041610Y-16347984D01*
X10041610Y-16347984D02*
X10022563Y-16347984D01*
X10022563Y-16347984D02*
X10003515Y-16338460D01*
X10003515Y-16338460D02*
X9993991Y-16328936D01*
X9993991Y-16328936D02*
X9984467Y-16309888D01*
X9984467Y-16309888D02*
X9974944Y-16271793D01*
X9974944Y-16271793D02*
X9974944Y-16224174D01*
X9974944Y-16224174D02*
X9984467Y-16186079D01*
X9984467Y-16186079D02*
X9993991Y-16167031D01*
X9993991Y-16167031D02*
X10003515Y-16157508D01*
X10003515Y-16157508D02*
X10022563Y-16147984D01*
X10213039Y-16147984D02*
X10232086Y-16147984D01*
X10232086Y-16147984D02*
X10251134Y-16157508D01*
X10251134Y-16157508D02*
X10260658Y-16167031D01*
X10260658Y-16167031D02*
X10270182Y-16186079D01*
X10270182Y-16186079D02*
X10279705Y-16224174D01*
X10279705Y-16224174D02*
X10279705Y-16271793D01*
X10279705Y-16271793D02*
X10270182Y-16309888D01*
X10270182Y-16309888D02*
X10260658Y-16328936D01*
X10260658Y-16328936D02*
X10251134Y-16338460D01*
X10251134Y-16338460D02*
X10232086Y-16347984D01*
X10232086Y-16347984D02*
X10213039Y-16347984D01*
X10213039Y-16347984D02*
X10193991Y-16338460D01*
X10193991Y-16338460D02*
X10184467Y-16328936D01*
X10184467Y-16328936D02*
X10174944Y-16309888D01*
X10174944Y-16309888D02*
X10165420Y-16271793D01*
X10165420Y-16271793D02*
X10165420Y-16224174D01*
X10165420Y-16224174D02*
X10174944Y-16186079D01*
X10174944Y-16186079D02*
X10184467Y-16167031D01*
X10184467Y-16167031D02*
X10193991Y-16157508D01*
X10193991Y-16157508D02*
X10213039Y-16147984D01*
X10365420Y-16347984D02*
X10365420Y-16214650D01*
X10365420Y-16233698D02*
X10374944Y-16224174D01*
X10374944Y-16224174D02*
X10393991Y-16214650D01*
X10393991Y-16214650D02*
X10422563Y-16214650D01*
X10422563Y-16214650D02*
X10441610Y-16224174D01*
X10441610Y-16224174D02*
X10451134Y-16243222D01*
X10451134Y-16243222D02*
X10451134Y-16347984D01*
X10451134Y-16243222D02*
X10460658Y-16224174D01*
X10460658Y-16224174D02*
X10479705Y-16214650D01*
X10479705Y-16214650D02*
X10508277Y-16214650D01*
X10508277Y-16214650D02*
X10527325Y-16224174D01*
X10527325Y-16224174D02*
X10536848Y-16243222D01*
X10536848Y-16243222D02*
X10536848Y-16347984D01*
X10632086Y-16347984D02*
X10632086Y-16214650D01*
X10632086Y-16233698D02*
X10641610Y-16224174D01*
X10641610Y-16224174D02*
X10660658Y-16214650D01*
X10660658Y-16214650D02*
X10689229Y-16214650D01*
X10689229Y-16214650D02*
X10708277Y-16224174D01*
X10708277Y-16224174D02*
X10717801Y-16243222D01*
X10717801Y-16243222D02*
X10717801Y-16347984D01*
X10717801Y-16243222D02*
X10727325Y-16224174D01*
X10727325Y-16224174D02*
X10746372Y-16214650D01*
X10746372Y-16214650D02*
X10774944Y-16214650D01*
X10774944Y-16214650D02*
X10793991Y-16224174D01*
X10793991Y-16224174D02*
X10803515Y-16243222D01*
X10803515Y-16243222D02*
X10803515Y-16347984D01*
X11193991Y-16138460D02*
X11022563Y-16395603D01*
X11451134Y-16147984D02*
X11470182Y-16147984D01*
X11470182Y-16147984D02*
X11489229Y-16157508D01*
X11489229Y-16157508D02*
X11498753Y-16167031D01*
X11498753Y-16167031D02*
X11508277Y-16186079D01*
X11508277Y-16186079D02*
X11517801Y-16224174D01*
X11517801Y-16224174D02*
X11517801Y-16271793D01*
X11517801Y-16271793D02*
X11508277Y-16309888D01*
X11508277Y-16309888D02*
X11498753Y-16328936D01*
X11498753Y-16328936D02*
X11489229Y-16338460D01*
X11489229Y-16338460D02*
X11470182Y-16347984D01*
X11470182Y-16347984D02*
X11451134Y-16347984D01*
X11451134Y-16347984D02*
X11432086Y-16338460D01*
X11432086Y-16338460D02*
X11422563Y-16328936D01*
X11422563Y-16328936D02*
X11413039Y-16309888D01*
X11413039Y-16309888D02*
X11403515Y-16271793D01*
X11403515Y-16271793D02*
X11403515Y-16224174D01*
X11403515Y-16224174D02*
X11413039Y-16186079D01*
X11413039Y-16186079D02*
X11422563Y-16167031D01*
X11422563Y-16167031D02*
X11432086Y-16157508D01*
X11432086Y-16157508D02*
X11451134Y-16147984D01*
X11603515Y-16328936D02*
X11613039Y-16338460D01*
X11613039Y-16338460D02*
X11603515Y-16347984D01*
X11603515Y-16347984D02*
X11593991Y-16338460D01*
X11593991Y-16338460D02*
X11603515Y-16328936D01*
X11603515Y-16328936D02*
X11603515Y-16347984D01*
X11736848Y-16147984D02*
X11755896Y-16147984D01*
X11755896Y-16147984D02*
X11774944Y-16157508D01*
X11774944Y-16157508D02*
X11784467Y-16167031D01*
X11784467Y-16167031D02*
X11793991Y-16186079D01*
X11793991Y-16186079D02*
X11803515Y-16224174D01*
X11803515Y-16224174D02*
X11803515Y-16271793D01*
X11803515Y-16271793D02*
X11793991Y-16309888D01*
X11793991Y-16309888D02*
X11784467Y-16328936D01*
X11784467Y-16328936D02*
X11774944Y-16338460D01*
X11774944Y-16338460D02*
X11755896Y-16347984D01*
X11755896Y-16347984D02*
X11736848Y-16347984D01*
X11736848Y-16347984D02*
X11717801Y-16338460D01*
X11717801Y-16338460D02*
X11708277Y-16328936D01*
X11708277Y-16328936D02*
X11698753Y-16309888D01*
X11698753Y-16309888D02*
X11689229Y-16271793D01*
X11689229Y-16271793D02*
X11689229Y-16224174D01*
X11689229Y-16224174D02*
X11698753Y-16186079D01*
X11698753Y-16186079D02*
X11708277Y-16167031D01*
X11708277Y-16167031D02*
X11717801Y-16157508D01*
X11717801Y-16157508D02*
X11736848Y-16147984D01*
X11993991Y-16347984D02*
X11879706Y-16347984D01*
X11936848Y-16347984D02*
X11936848Y-16147984D01*
X11936848Y-16147984D02*
X11917801Y-16176555D01*
X11917801Y-16176555D02*
X11898753Y-16195603D01*
X11898753Y-16195603D02*
X11879706Y-16205127D01*
X12174944Y-16147984D02*
X12079706Y-16147984D01*
X12079706Y-16147984D02*
X12070182Y-16243222D01*
X12070182Y-16243222D02*
X12079706Y-16233698D01*
X12079706Y-16233698D02*
X12098753Y-16224174D01*
X12098753Y-16224174D02*
X12146372Y-16224174D01*
X12146372Y-16224174D02*
X12165420Y-16233698D01*
X12165420Y-16233698D02*
X12174944Y-16243222D01*
X12174944Y-16243222D02*
X12184467Y-16262269D01*
X12184467Y-16262269D02*
X12184467Y-16309888D01*
X12184467Y-16309888D02*
X12174944Y-16328936D01*
X12174944Y-16328936D02*
X12165420Y-16338460D01*
X12165420Y-16338460D02*
X12146372Y-16347984D01*
X12146372Y-16347984D02*
X12098753Y-16347984D01*
X12098753Y-16347984D02*
X12079706Y-16338460D01*
X12079706Y-16338460D02*
X12070182Y-16328936D01*
X12251134Y-16147984D02*
X12384467Y-16147984D01*
X12384467Y-16147984D02*
X12298753Y-16347984D01*
X12451134Y-16147984D02*
X12451134Y-16186079D01*
X12527325Y-16147984D02*
X12527325Y-16186079D01*
X12822563Y-16424174D02*
X12813039Y-16414650D01*
X12813039Y-16414650D02*
X12793991Y-16386079D01*
X12793991Y-16386079D02*
X12784468Y-16367031D01*
X12784468Y-16367031D02*
X12774944Y-16338460D01*
X12774944Y-16338460D02*
X12765420Y-16290841D01*
X12765420Y-16290841D02*
X12765420Y-16252746D01*
X12765420Y-16252746D02*
X12774944Y-16205127D01*
X12774944Y-16205127D02*
X12784468Y-16176555D01*
X12784468Y-16176555D02*
X12793991Y-16157508D01*
X12793991Y-16157508D02*
X12813039Y-16128936D01*
X12813039Y-16128936D02*
X12822563Y-16119412D01*
X12984468Y-16214650D02*
X12984468Y-16347984D01*
X12936848Y-16138460D02*
X12889229Y-16281317D01*
X12889229Y-16281317D02*
X13013039Y-16281317D01*
X13241610Y-16347984D02*
X13241610Y-16147984D01*
X13327325Y-16347984D02*
X13327325Y-16243222D01*
X13327325Y-16243222D02*
X13317801Y-16224174D01*
X13317801Y-16224174D02*
X13298753Y-16214650D01*
X13298753Y-16214650D02*
X13270182Y-16214650D01*
X13270182Y-16214650D02*
X13251134Y-16224174D01*
X13251134Y-16224174D02*
X13241610Y-16233698D01*
X13451134Y-16347984D02*
X13432087Y-16338460D01*
X13432087Y-16338460D02*
X13422563Y-16328936D01*
X13422563Y-16328936D02*
X13413039Y-16309888D01*
X13413039Y-16309888D02*
X13413039Y-16252746D01*
X13413039Y-16252746D02*
X13422563Y-16233698D01*
X13422563Y-16233698D02*
X13432087Y-16224174D01*
X13432087Y-16224174D02*
X13451134Y-16214650D01*
X13451134Y-16214650D02*
X13479706Y-16214650D01*
X13479706Y-16214650D02*
X13498753Y-16224174D01*
X13498753Y-16224174D02*
X13508277Y-16233698D01*
X13508277Y-16233698D02*
X13517801Y-16252746D01*
X13517801Y-16252746D02*
X13517801Y-16309888D01*
X13517801Y-16309888D02*
X13508277Y-16328936D01*
X13508277Y-16328936D02*
X13498753Y-16338460D01*
X13498753Y-16338460D02*
X13479706Y-16347984D01*
X13479706Y-16347984D02*
X13451134Y-16347984D01*
X13632087Y-16347984D02*
X13613039Y-16338460D01*
X13613039Y-16338460D02*
X13603515Y-16319412D01*
X13603515Y-16319412D02*
X13603515Y-16147984D01*
X13784468Y-16338460D02*
X13765420Y-16347984D01*
X13765420Y-16347984D02*
X13727325Y-16347984D01*
X13727325Y-16347984D02*
X13708277Y-16338460D01*
X13708277Y-16338460D02*
X13698753Y-16319412D01*
X13698753Y-16319412D02*
X13698753Y-16243222D01*
X13698753Y-16243222D02*
X13708277Y-16224174D01*
X13708277Y-16224174D02*
X13727325Y-16214650D01*
X13727325Y-16214650D02*
X13765420Y-16214650D01*
X13765420Y-16214650D02*
X13784468Y-16224174D01*
X13784468Y-16224174D02*
X13793991Y-16243222D01*
X13793991Y-16243222D02*
X13793991Y-16262269D01*
X13793991Y-16262269D02*
X13698753Y-16281317D01*
X13870182Y-16338460D02*
X13889230Y-16347984D01*
X13889230Y-16347984D02*
X13927325Y-16347984D01*
X13927325Y-16347984D02*
X13946372Y-16338460D01*
X13946372Y-16338460D02*
X13955896Y-16319412D01*
X13955896Y-16319412D02*
X13955896Y-16309888D01*
X13955896Y-16309888D02*
X13946372Y-16290841D01*
X13946372Y-16290841D02*
X13927325Y-16281317D01*
X13927325Y-16281317D02*
X13898753Y-16281317D01*
X13898753Y-16281317D02*
X13879706Y-16271793D01*
X13879706Y-16271793D02*
X13870182Y-16252746D01*
X13870182Y-16252746D02*
X13870182Y-16243222D01*
X13870182Y-16243222D02*
X13879706Y-16224174D01*
X13879706Y-16224174D02*
X13898753Y-16214650D01*
X13898753Y-16214650D02*
X13927325Y-16214650D01*
X13927325Y-16214650D02*
X13946372Y-16224174D01*
X14022563Y-16424174D02*
X14032087Y-16414650D01*
X14032087Y-16414650D02*
X14051134Y-16386079D01*
X14051134Y-16386079D02*
X14060658Y-16367031D01*
X14060658Y-16367031D02*
X14070182Y-16338460D01*
X14070182Y-16338460D02*
X14079706Y-16290841D01*
X14079706Y-16290841D02*
X14079706Y-16252746D01*
X14079706Y-16252746D02*
X14070182Y-16205127D01*
X14070182Y-16205127D02*
X14060658Y-16176555D01*
X14060658Y-16176555D02*
X14051134Y-16157508D01*
X14051134Y-16157508D02*
X14032087Y-16128936D01*
X14032087Y-16128936D02*
X14022563Y-16119412D01*
D12*
X9197500Y-16470500D02*
X9197500Y-16570500D01*
X9147500Y-16520500D02*
X9247500Y-16520500D01*
D11*
X9613039Y-16611984D02*
X9498753Y-16611984D01*
X9555896Y-16611984D02*
X9555896Y-16411984D01*
X9555896Y-16411984D02*
X9536848Y-16440555D01*
X9536848Y-16440555D02*
X9517801Y-16459603D01*
X9517801Y-16459603D02*
X9498753Y-16469127D01*
X9698753Y-16592936D02*
X9708277Y-16602460D01*
X9708277Y-16602460D02*
X9698753Y-16611984D01*
X9698753Y-16611984D02*
X9689229Y-16602460D01*
X9689229Y-16602460D02*
X9698753Y-16592936D01*
X9698753Y-16592936D02*
X9698753Y-16611984D01*
X9832086Y-16411984D02*
X9851134Y-16411984D01*
X9851134Y-16411984D02*
X9870182Y-16421508D01*
X9870182Y-16421508D02*
X9879705Y-16431031D01*
X9879705Y-16431031D02*
X9889229Y-16450079D01*
X9889229Y-16450079D02*
X9898753Y-16488174D01*
X9898753Y-16488174D02*
X9898753Y-16535793D01*
X9898753Y-16535793D02*
X9889229Y-16573888D01*
X9889229Y-16573888D02*
X9879705Y-16592936D01*
X9879705Y-16592936D02*
X9870182Y-16602460D01*
X9870182Y-16602460D02*
X9851134Y-16611984D01*
X9851134Y-16611984D02*
X9832086Y-16611984D01*
X9832086Y-16611984D02*
X9813039Y-16602460D01*
X9813039Y-16602460D02*
X9803515Y-16592936D01*
X9803515Y-16592936D02*
X9793991Y-16573888D01*
X9793991Y-16573888D02*
X9784467Y-16535793D01*
X9784467Y-16535793D02*
X9784467Y-16488174D01*
X9784467Y-16488174D02*
X9793991Y-16450079D01*
X9793991Y-16450079D02*
X9803515Y-16431031D01*
X9803515Y-16431031D02*
X9813039Y-16421508D01*
X9813039Y-16421508D02*
X9832086Y-16411984D01*
X10022563Y-16411984D02*
X10041610Y-16411984D01*
X10041610Y-16411984D02*
X10060658Y-16421508D01*
X10060658Y-16421508D02*
X10070182Y-16431031D01*
X10070182Y-16431031D02*
X10079705Y-16450079D01*
X10079705Y-16450079D02*
X10089229Y-16488174D01*
X10089229Y-16488174D02*
X10089229Y-16535793D01*
X10089229Y-16535793D02*
X10079705Y-16573888D01*
X10079705Y-16573888D02*
X10070182Y-16592936D01*
X10070182Y-16592936D02*
X10060658Y-16602460D01*
X10060658Y-16602460D02*
X10041610Y-16611984D01*
X10041610Y-16611984D02*
X10022563Y-16611984D01*
X10022563Y-16611984D02*
X10003515Y-16602460D01*
X10003515Y-16602460D02*
X9993991Y-16592936D01*
X9993991Y-16592936D02*
X9984467Y-16573888D01*
X9984467Y-16573888D02*
X9974944Y-16535793D01*
X9974944Y-16535793D02*
X9974944Y-16488174D01*
X9974944Y-16488174D02*
X9984467Y-16450079D01*
X9984467Y-16450079D02*
X9993991Y-16431031D01*
X9993991Y-16431031D02*
X10003515Y-16421508D01*
X10003515Y-16421508D02*
X10022563Y-16411984D01*
X10213039Y-16411984D02*
X10232086Y-16411984D01*
X10232086Y-16411984D02*
X10251134Y-16421508D01*
X10251134Y-16421508D02*
X10260658Y-16431031D01*
X10260658Y-16431031D02*
X10270182Y-16450079D01*
X10270182Y-16450079D02*
X10279705Y-16488174D01*
X10279705Y-16488174D02*
X10279705Y-16535793D01*
X10279705Y-16535793D02*
X10270182Y-16573888D01*
X10270182Y-16573888D02*
X10260658Y-16592936D01*
X10260658Y-16592936D02*
X10251134Y-16602460D01*
X10251134Y-16602460D02*
X10232086Y-16611984D01*
X10232086Y-16611984D02*
X10213039Y-16611984D01*
X10213039Y-16611984D02*
X10193991Y-16602460D01*
X10193991Y-16602460D02*
X10184467Y-16592936D01*
X10184467Y-16592936D02*
X10174944Y-16573888D01*
X10174944Y-16573888D02*
X10165420Y-16535793D01*
X10165420Y-16535793D02*
X10165420Y-16488174D01*
X10165420Y-16488174D02*
X10174944Y-16450079D01*
X10174944Y-16450079D02*
X10184467Y-16431031D01*
X10184467Y-16431031D02*
X10193991Y-16421508D01*
X10193991Y-16421508D02*
X10213039Y-16411984D01*
X10365420Y-16611984D02*
X10365420Y-16478650D01*
X10365420Y-16497698D02*
X10374944Y-16488174D01*
X10374944Y-16488174D02*
X10393991Y-16478650D01*
X10393991Y-16478650D02*
X10422563Y-16478650D01*
X10422563Y-16478650D02*
X10441610Y-16488174D01*
X10441610Y-16488174D02*
X10451134Y-16507222D01*
X10451134Y-16507222D02*
X10451134Y-16611984D01*
X10451134Y-16507222D02*
X10460658Y-16488174D01*
X10460658Y-16488174D02*
X10479705Y-16478650D01*
X10479705Y-16478650D02*
X10508277Y-16478650D01*
X10508277Y-16478650D02*
X10527325Y-16488174D01*
X10527325Y-16488174D02*
X10536848Y-16507222D01*
X10536848Y-16507222D02*
X10536848Y-16611984D01*
X10632086Y-16611984D02*
X10632086Y-16478650D01*
X10632086Y-16497698D02*
X10641610Y-16488174D01*
X10641610Y-16488174D02*
X10660658Y-16478650D01*
X10660658Y-16478650D02*
X10689229Y-16478650D01*
X10689229Y-16478650D02*
X10708277Y-16488174D01*
X10708277Y-16488174D02*
X10717801Y-16507222D01*
X10717801Y-16507222D02*
X10717801Y-16611984D01*
X10717801Y-16507222D02*
X10727325Y-16488174D01*
X10727325Y-16488174D02*
X10746372Y-16478650D01*
X10746372Y-16478650D02*
X10774944Y-16478650D01*
X10774944Y-16478650D02*
X10793991Y-16488174D01*
X10793991Y-16488174D02*
X10803515Y-16507222D01*
X10803515Y-16507222D02*
X10803515Y-16611984D01*
X11193991Y-16402460D02*
X11022563Y-16659603D01*
X11451134Y-16411984D02*
X11470182Y-16411984D01*
X11470182Y-16411984D02*
X11489229Y-16421508D01*
X11489229Y-16421508D02*
X11498753Y-16431031D01*
X11498753Y-16431031D02*
X11508277Y-16450079D01*
X11508277Y-16450079D02*
X11517801Y-16488174D01*
X11517801Y-16488174D02*
X11517801Y-16535793D01*
X11517801Y-16535793D02*
X11508277Y-16573888D01*
X11508277Y-16573888D02*
X11498753Y-16592936D01*
X11498753Y-16592936D02*
X11489229Y-16602460D01*
X11489229Y-16602460D02*
X11470182Y-16611984D01*
X11470182Y-16611984D02*
X11451134Y-16611984D01*
X11451134Y-16611984D02*
X11432086Y-16602460D01*
X11432086Y-16602460D02*
X11422563Y-16592936D01*
X11422563Y-16592936D02*
X11413039Y-16573888D01*
X11413039Y-16573888D02*
X11403515Y-16535793D01*
X11403515Y-16535793D02*
X11403515Y-16488174D01*
X11403515Y-16488174D02*
X11413039Y-16450079D01*
X11413039Y-16450079D02*
X11422563Y-16431031D01*
X11422563Y-16431031D02*
X11432086Y-16421508D01*
X11432086Y-16421508D02*
X11451134Y-16411984D01*
X11603515Y-16592936D02*
X11613039Y-16602460D01*
X11613039Y-16602460D02*
X11603515Y-16611984D01*
X11603515Y-16611984D02*
X11593991Y-16602460D01*
X11593991Y-16602460D02*
X11603515Y-16592936D01*
X11603515Y-16592936D02*
X11603515Y-16611984D01*
X11736848Y-16411984D02*
X11755896Y-16411984D01*
X11755896Y-16411984D02*
X11774944Y-16421508D01*
X11774944Y-16421508D02*
X11784467Y-16431031D01*
X11784467Y-16431031D02*
X11793991Y-16450079D01*
X11793991Y-16450079D02*
X11803515Y-16488174D01*
X11803515Y-16488174D02*
X11803515Y-16535793D01*
X11803515Y-16535793D02*
X11793991Y-16573888D01*
X11793991Y-16573888D02*
X11784467Y-16592936D01*
X11784467Y-16592936D02*
X11774944Y-16602460D01*
X11774944Y-16602460D02*
X11755896Y-16611984D01*
X11755896Y-16611984D02*
X11736848Y-16611984D01*
X11736848Y-16611984D02*
X11717801Y-16602460D01*
X11717801Y-16602460D02*
X11708277Y-16592936D01*
X11708277Y-16592936D02*
X11698753Y-16573888D01*
X11698753Y-16573888D02*
X11689229Y-16535793D01*
X11689229Y-16535793D02*
X11689229Y-16488174D01*
X11689229Y-16488174D02*
X11698753Y-16450079D01*
X11698753Y-16450079D02*
X11708277Y-16431031D01*
X11708277Y-16431031D02*
X11717801Y-16421508D01*
X11717801Y-16421508D02*
X11736848Y-16411984D01*
X11870182Y-16411984D02*
X11993991Y-16411984D01*
X11993991Y-16411984D02*
X11927325Y-16488174D01*
X11927325Y-16488174D02*
X11955896Y-16488174D01*
X11955896Y-16488174D02*
X11974944Y-16497698D01*
X11974944Y-16497698D02*
X11984467Y-16507222D01*
X11984467Y-16507222D02*
X11993991Y-16526269D01*
X11993991Y-16526269D02*
X11993991Y-16573888D01*
X11993991Y-16573888D02*
X11984467Y-16592936D01*
X11984467Y-16592936D02*
X11974944Y-16602460D01*
X11974944Y-16602460D02*
X11955896Y-16611984D01*
X11955896Y-16611984D02*
X11898753Y-16611984D01*
X11898753Y-16611984D02*
X11879706Y-16602460D01*
X11879706Y-16602460D02*
X11870182Y-16592936D01*
X12089229Y-16611984D02*
X12127325Y-16611984D01*
X12127325Y-16611984D02*
X12146372Y-16602460D01*
X12146372Y-16602460D02*
X12155896Y-16592936D01*
X12155896Y-16592936D02*
X12174944Y-16564365D01*
X12174944Y-16564365D02*
X12184467Y-16526269D01*
X12184467Y-16526269D02*
X12184467Y-16450079D01*
X12184467Y-16450079D02*
X12174944Y-16431031D01*
X12174944Y-16431031D02*
X12165420Y-16421508D01*
X12165420Y-16421508D02*
X12146372Y-16411984D01*
X12146372Y-16411984D02*
X12108277Y-16411984D01*
X12108277Y-16411984D02*
X12089229Y-16421508D01*
X12089229Y-16421508D02*
X12079706Y-16431031D01*
X12079706Y-16431031D02*
X12070182Y-16450079D01*
X12070182Y-16450079D02*
X12070182Y-16497698D01*
X12070182Y-16497698D02*
X12079706Y-16516746D01*
X12079706Y-16516746D02*
X12089229Y-16526269D01*
X12089229Y-16526269D02*
X12108277Y-16535793D01*
X12108277Y-16535793D02*
X12146372Y-16535793D01*
X12146372Y-16535793D02*
X12165420Y-16526269D01*
X12165420Y-16526269D02*
X12174944Y-16516746D01*
X12174944Y-16516746D02*
X12184467Y-16497698D01*
X12355896Y-16478650D02*
X12355896Y-16611984D01*
X12308277Y-16402460D02*
X12260658Y-16545317D01*
X12260658Y-16545317D02*
X12384467Y-16545317D01*
X12451134Y-16411984D02*
X12451134Y-16450079D01*
X12527325Y-16411984D02*
X12527325Y-16450079D01*
X12822563Y-16688174D02*
X12813039Y-16678650D01*
X12813039Y-16678650D02*
X12793991Y-16650079D01*
X12793991Y-16650079D02*
X12784468Y-16631031D01*
X12784468Y-16631031D02*
X12774944Y-16602460D01*
X12774944Y-16602460D02*
X12765420Y-16554841D01*
X12765420Y-16554841D02*
X12765420Y-16516746D01*
X12765420Y-16516746D02*
X12774944Y-16469127D01*
X12774944Y-16469127D02*
X12784468Y-16440555D01*
X12784468Y-16440555D02*
X12793991Y-16421508D01*
X12793991Y-16421508D02*
X12813039Y-16392936D01*
X12813039Y-16392936D02*
X12822563Y-16383412D01*
X13003515Y-16611984D02*
X12889229Y-16611984D01*
X12946372Y-16611984D02*
X12946372Y-16411984D01*
X12946372Y-16411984D02*
X12927325Y-16440555D01*
X12927325Y-16440555D02*
X12908277Y-16459603D01*
X12908277Y-16459603D02*
X12889229Y-16469127D01*
X13070182Y-16411984D02*
X13193991Y-16411984D01*
X13193991Y-16411984D02*
X13127325Y-16488174D01*
X13127325Y-16488174D02*
X13155896Y-16488174D01*
X13155896Y-16488174D02*
X13174944Y-16497698D01*
X13174944Y-16497698D02*
X13184468Y-16507222D01*
X13184468Y-16507222D02*
X13193991Y-16526269D01*
X13193991Y-16526269D02*
X13193991Y-16573888D01*
X13193991Y-16573888D02*
X13184468Y-16592936D01*
X13184468Y-16592936D02*
X13174944Y-16602460D01*
X13174944Y-16602460D02*
X13155896Y-16611984D01*
X13155896Y-16611984D02*
X13098753Y-16611984D01*
X13098753Y-16611984D02*
X13079706Y-16602460D01*
X13079706Y-16602460D02*
X13070182Y-16592936D01*
X13432087Y-16611984D02*
X13432087Y-16411984D01*
X13517801Y-16611984D02*
X13517801Y-16507222D01*
X13517801Y-16507222D02*
X13508277Y-16488174D01*
X13508277Y-16488174D02*
X13489230Y-16478650D01*
X13489230Y-16478650D02*
X13460658Y-16478650D01*
X13460658Y-16478650D02*
X13441610Y-16488174D01*
X13441610Y-16488174D02*
X13432087Y-16497698D01*
X13641610Y-16611984D02*
X13622563Y-16602460D01*
X13622563Y-16602460D02*
X13613039Y-16592936D01*
X13613039Y-16592936D02*
X13603515Y-16573888D01*
X13603515Y-16573888D02*
X13603515Y-16516746D01*
X13603515Y-16516746D02*
X13613039Y-16497698D01*
X13613039Y-16497698D02*
X13622563Y-16488174D01*
X13622563Y-16488174D02*
X13641610Y-16478650D01*
X13641610Y-16478650D02*
X13670182Y-16478650D01*
X13670182Y-16478650D02*
X13689230Y-16488174D01*
X13689230Y-16488174D02*
X13698753Y-16497698D01*
X13698753Y-16497698D02*
X13708277Y-16516746D01*
X13708277Y-16516746D02*
X13708277Y-16573888D01*
X13708277Y-16573888D02*
X13698753Y-16592936D01*
X13698753Y-16592936D02*
X13689230Y-16602460D01*
X13689230Y-16602460D02*
X13670182Y-16611984D01*
X13670182Y-16611984D02*
X13641610Y-16611984D01*
X13822563Y-16611984D02*
X13803515Y-16602460D01*
X13803515Y-16602460D02*
X13793991Y-16583412D01*
X13793991Y-16583412D02*
X13793991Y-16411984D01*
X13974944Y-16602460D02*
X13955896Y-16611984D01*
X13955896Y-16611984D02*
X13917801Y-16611984D01*
X13917801Y-16611984D02*
X13898753Y-16602460D01*
X13898753Y-16602460D02*
X13889230Y-16583412D01*
X13889230Y-16583412D02*
X13889230Y-16507222D01*
X13889230Y-16507222D02*
X13898753Y-16488174D01*
X13898753Y-16488174D02*
X13917801Y-16478650D01*
X13917801Y-16478650D02*
X13955896Y-16478650D01*
X13955896Y-16478650D02*
X13974944Y-16488174D01*
X13974944Y-16488174D02*
X13984468Y-16507222D01*
X13984468Y-16507222D02*
X13984468Y-16526269D01*
X13984468Y-16526269D02*
X13889230Y-16545317D01*
X14060658Y-16602460D02*
X14079706Y-16611984D01*
X14079706Y-16611984D02*
X14117801Y-16611984D01*
X14117801Y-16611984D02*
X14136849Y-16602460D01*
X14136849Y-16602460D02*
X14146372Y-16583412D01*
X14146372Y-16583412D02*
X14146372Y-16573888D01*
X14146372Y-16573888D02*
X14136849Y-16554841D01*
X14136849Y-16554841D02*
X14117801Y-16545317D01*
X14117801Y-16545317D02*
X14089230Y-16545317D01*
X14089230Y-16545317D02*
X14070182Y-16535793D01*
X14070182Y-16535793D02*
X14060658Y-16516746D01*
X14060658Y-16516746D02*
X14060658Y-16507222D01*
X14060658Y-16507222D02*
X14070182Y-16488174D01*
X14070182Y-16488174D02*
X14089230Y-16478650D01*
X14089230Y-16478650D02*
X14117801Y-16478650D01*
X14117801Y-16478650D02*
X14136849Y-16488174D01*
X14213039Y-16688174D02*
X14222563Y-16678650D01*
X14222563Y-16678650D02*
X14241611Y-16650079D01*
X14241611Y-16650079D02*
X14251134Y-16631031D01*
X14251134Y-16631031D02*
X14260658Y-16602460D01*
X14260658Y-16602460D02*
X14270182Y-16554841D01*
X14270182Y-16554841D02*
X14270182Y-16516746D01*
X14270182Y-16516746D02*
X14260658Y-16469127D01*
X14260658Y-16469127D02*
X14251134Y-16440555D01*
X14251134Y-16440555D02*
X14241611Y-16421508D01*
X14241611Y-16421508D02*
X14222563Y-16392936D01*
X14222563Y-16392936D02*
X14213039Y-16383412D01*
D13*
X9229927Y-16826927D02*
X9229927Y-16742073D01*
X9145073Y-16742073D01*
X9145073Y-16826927D01*
X9229927Y-16826927D01*
D11*
X9613039Y-16875984D02*
X9498753Y-16875984D01*
X9555896Y-16875984D02*
X9555896Y-16675984D01*
X9555896Y-16675984D02*
X9536848Y-16704555D01*
X9536848Y-16704555D02*
X9517801Y-16723603D01*
X9517801Y-16723603D02*
X9498753Y-16733127D01*
X9698753Y-16856936D02*
X9708277Y-16866460D01*
X9708277Y-16866460D02*
X9698753Y-16875984D01*
X9698753Y-16875984D02*
X9689229Y-16866460D01*
X9689229Y-16866460D02*
X9698753Y-16856936D01*
X9698753Y-16856936D02*
X9698753Y-16875984D01*
X9784467Y-16695031D02*
X9793991Y-16685508D01*
X9793991Y-16685508D02*
X9813039Y-16675984D01*
X9813039Y-16675984D02*
X9860658Y-16675984D01*
X9860658Y-16675984D02*
X9879705Y-16685508D01*
X9879705Y-16685508D02*
X9889229Y-16695031D01*
X9889229Y-16695031D02*
X9898753Y-16714079D01*
X9898753Y-16714079D02*
X9898753Y-16733127D01*
X9898753Y-16733127D02*
X9889229Y-16761698D01*
X9889229Y-16761698D02*
X9774944Y-16875984D01*
X9774944Y-16875984D02*
X9898753Y-16875984D01*
X10022563Y-16675984D02*
X10041610Y-16675984D01*
X10041610Y-16675984D02*
X10060658Y-16685508D01*
X10060658Y-16685508D02*
X10070182Y-16695031D01*
X10070182Y-16695031D02*
X10079705Y-16714079D01*
X10079705Y-16714079D02*
X10089229Y-16752174D01*
X10089229Y-16752174D02*
X10089229Y-16799793D01*
X10089229Y-16799793D02*
X10079705Y-16837889D01*
X10079705Y-16837889D02*
X10070182Y-16856936D01*
X10070182Y-16856936D02*
X10060658Y-16866460D01*
X10060658Y-16866460D02*
X10041610Y-16875984D01*
X10041610Y-16875984D02*
X10022563Y-16875984D01*
X10022563Y-16875984D02*
X10003515Y-16866460D01*
X10003515Y-16866460D02*
X9993991Y-16856936D01*
X9993991Y-16856936D02*
X9984467Y-16837889D01*
X9984467Y-16837889D02*
X9974944Y-16799793D01*
X9974944Y-16799793D02*
X9974944Y-16752174D01*
X9974944Y-16752174D02*
X9984467Y-16714079D01*
X9984467Y-16714079D02*
X9993991Y-16695031D01*
X9993991Y-16695031D02*
X10003515Y-16685508D01*
X10003515Y-16685508D02*
X10022563Y-16675984D01*
X10213039Y-16675984D02*
X10232086Y-16675984D01*
X10232086Y-16675984D02*
X10251134Y-16685508D01*
X10251134Y-16685508D02*
X10260658Y-16695031D01*
X10260658Y-16695031D02*
X10270182Y-16714079D01*
X10270182Y-16714079D02*
X10279705Y-16752174D01*
X10279705Y-16752174D02*
X10279705Y-16799793D01*
X10279705Y-16799793D02*
X10270182Y-16837889D01*
X10270182Y-16837889D02*
X10260658Y-16856936D01*
X10260658Y-16856936D02*
X10251134Y-16866460D01*
X10251134Y-16866460D02*
X10232086Y-16875984D01*
X10232086Y-16875984D02*
X10213039Y-16875984D01*
X10213039Y-16875984D02*
X10193991Y-16866460D01*
X10193991Y-16866460D02*
X10184467Y-16856936D01*
X10184467Y-16856936D02*
X10174944Y-16837889D01*
X10174944Y-16837889D02*
X10165420Y-16799793D01*
X10165420Y-16799793D02*
X10165420Y-16752174D01*
X10165420Y-16752174D02*
X10174944Y-16714079D01*
X10174944Y-16714079D02*
X10184467Y-16695031D01*
X10184467Y-16695031D02*
X10193991Y-16685508D01*
X10193991Y-16685508D02*
X10213039Y-16675984D01*
X10365420Y-16875984D02*
X10365420Y-16742650D01*
X10365420Y-16761698D02*
X10374944Y-16752174D01*
X10374944Y-16752174D02*
X10393991Y-16742650D01*
X10393991Y-16742650D02*
X10422563Y-16742650D01*
X10422563Y-16742650D02*
X10441610Y-16752174D01*
X10441610Y-16752174D02*
X10451134Y-16771222D01*
X10451134Y-16771222D02*
X10451134Y-16875984D01*
X10451134Y-16771222D02*
X10460658Y-16752174D01*
X10460658Y-16752174D02*
X10479705Y-16742650D01*
X10479705Y-16742650D02*
X10508277Y-16742650D01*
X10508277Y-16742650D02*
X10527325Y-16752174D01*
X10527325Y-16752174D02*
X10536848Y-16771222D01*
X10536848Y-16771222D02*
X10536848Y-16875984D01*
X10632086Y-16875984D02*
X10632086Y-16742650D01*
X10632086Y-16761698D02*
X10641610Y-16752174D01*
X10641610Y-16752174D02*
X10660658Y-16742650D01*
X10660658Y-16742650D02*
X10689229Y-16742650D01*
X10689229Y-16742650D02*
X10708277Y-16752174D01*
X10708277Y-16752174D02*
X10717801Y-16771222D01*
X10717801Y-16771222D02*
X10717801Y-16875984D01*
X10717801Y-16771222D02*
X10727325Y-16752174D01*
X10727325Y-16752174D02*
X10746372Y-16742650D01*
X10746372Y-16742650D02*
X10774944Y-16742650D01*
X10774944Y-16742650D02*
X10793991Y-16752174D01*
X10793991Y-16752174D02*
X10803515Y-16771222D01*
X10803515Y-16771222D02*
X10803515Y-16875984D01*
X11193991Y-16666460D02*
X11022563Y-16923603D01*
X11451134Y-16675984D02*
X11470182Y-16675984D01*
X11470182Y-16675984D02*
X11489229Y-16685508D01*
X11489229Y-16685508D02*
X11498753Y-16695031D01*
X11498753Y-16695031D02*
X11508277Y-16714079D01*
X11508277Y-16714079D02*
X11517801Y-16752174D01*
X11517801Y-16752174D02*
X11517801Y-16799793D01*
X11517801Y-16799793D02*
X11508277Y-16837889D01*
X11508277Y-16837889D02*
X11498753Y-16856936D01*
X11498753Y-16856936D02*
X11489229Y-16866460D01*
X11489229Y-16866460D02*
X11470182Y-16875984D01*
X11470182Y-16875984D02*
X11451134Y-16875984D01*
X11451134Y-16875984D02*
X11432086Y-16866460D01*
X11432086Y-16866460D02*
X11422563Y-16856936D01*
X11422563Y-16856936D02*
X11413039Y-16837889D01*
X11413039Y-16837889D02*
X11403515Y-16799793D01*
X11403515Y-16799793D02*
X11403515Y-16752174D01*
X11403515Y-16752174D02*
X11413039Y-16714079D01*
X11413039Y-16714079D02*
X11422563Y-16695031D01*
X11422563Y-16695031D02*
X11432086Y-16685508D01*
X11432086Y-16685508D02*
X11451134Y-16675984D01*
X11603515Y-16856936D02*
X11613039Y-16866460D01*
X11613039Y-16866460D02*
X11603515Y-16875984D01*
X11603515Y-16875984D02*
X11593991Y-16866460D01*
X11593991Y-16866460D02*
X11603515Y-16856936D01*
X11603515Y-16856936D02*
X11603515Y-16875984D01*
X11736848Y-16675984D02*
X11755896Y-16675984D01*
X11755896Y-16675984D02*
X11774944Y-16685508D01*
X11774944Y-16685508D02*
X11784467Y-16695031D01*
X11784467Y-16695031D02*
X11793991Y-16714079D01*
X11793991Y-16714079D02*
X11803515Y-16752174D01*
X11803515Y-16752174D02*
X11803515Y-16799793D01*
X11803515Y-16799793D02*
X11793991Y-16837889D01*
X11793991Y-16837889D02*
X11784467Y-16856936D01*
X11784467Y-16856936D02*
X11774944Y-16866460D01*
X11774944Y-16866460D02*
X11755896Y-16875984D01*
X11755896Y-16875984D02*
X11736848Y-16875984D01*
X11736848Y-16875984D02*
X11717801Y-16866460D01*
X11717801Y-16866460D02*
X11708277Y-16856936D01*
X11708277Y-16856936D02*
X11698753Y-16837889D01*
X11698753Y-16837889D02*
X11689229Y-16799793D01*
X11689229Y-16799793D02*
X11689229Y-16752174D01*
X11689229Y-16752174D02*
X11698753Y-16714079D01*
X11698753Y-16714079D02*
X11708277Y-16695031D01*
X11708277Y-16695031D02*
X11717801Y-16685508D01*
X11717801Y-16685508D02*
X11736848Y-16675984D01*
X11974944Y-16742650D02*
X11974944Y-16875984D01*
X11927325Y-16666460D02*
X11879706Y-16809317D01*
X11879706Y-16809317D02*
X12003515Y-16809317D01*
X12060658Y-16675984D02*
X12193991Y-16675984D01*
X12193991Y-16675984D02*
X12108277Y-16875984D01*
X12260658Y-16695031D02*
X12270182Y-16685508D01*
X12270182Y-16685508D02*
X12289229Y-16675984D01*
X12289229Y-16675984D02*
X12336848Y-16675984D01*
X12336848Y-16675984D02*
X12355896Y-16685508D01*
X12355896Y-16685508D02*
X12365420Y-16695031D01*
X12365420Y-16695031D02*
X12374944Y-16714079D01*
X12374944Y-16714079D02*
X12374944Y-16733127D01*
X12374944Y-16733127D02*
X12365420Y-16761698D01*
X12365420Y-16761698D02*
X12251134Y-16875984D01*
X12251134Y-16875984D02*
X12374944Y-16875984D01*
X12451134Y-16675984D02*
X12451134Y-16714079D01*
X12527325Y-16675984D02*
X12527325Y-16714079D01*
X12822563Y-16952174D02*
X12813039Y-16942650D01*
X12813039Y-16942650D02*
X12793991Y-16914079D01*
X12793991Y-16914079D02*
X12784468Y-16895031D01*
X12784468Y-16895031D02*
X12774944Y-16866460D01*
X12774944Y-16866460D02*
X12765420Y-16818841D01*
X12765420Y-16818841D02*
X12765420Y-16780746D01*
X12765420Y-16780746D02*
X12774944Y-16733127D01*
X12774944Y-16733127D02*
X12784468Y-16704555D01*
X12784468Y-16704555D02*
X12793991Y-16685508D01*
X12793991Y-16685508D02*
X12813039Y-16656936D01*
X12813039Y-16656936D02*
X12822563Y-16647412D01*
X13003515Y-16875984D02*
X12889229Y-16875984D01*
X12946372Y-16875984D02*
X12946372Y-16675984D01*
X12946372Y-16675984D02*
X12927325Y-16704555D01*
X12927325Y-16704555D02*
X12908277Y-16723603D01*
X12908277Y-16723603D02*
X12889229Y-16733127D01*
X13079706Y-16695031D02*
X13089229Y-16685508D01*
X13089229Y-16685508D02*
X13108277Y-16675984D01*
X13108277Y-16675984D02*
X13155896Y-16675984D01*
X13155896Y-16675984D02*
X13174944Y-16685508D01*
X13174944Y-16685508D02*
X13184468Y-16695031D01*
X13184468Y-16695031D02*
X13193991Y-16714079D01*
X13193991Y-16714079D02*
X13193991Y-16733127D01*
X13193991Y-16733127D02*
X13184468Y-16761698D01*
X13184468Y-16761698D02*
X13070182Y-16875984D01*
X13070182Y-16875984D02*
X13193991Y-16875984D01*
X13432087Y-16875984D02*
X13432087Y-16675984D01*
X13517801Y-16875984D02*
X13517801Y-16771222D01*
X13517801Y-16771222D02*
X13508277Y-16752174D01*
X13508277Y-16752174D02*
X13489230Y-16742650D01*
X13489230Y-16742650D02*
X13460658Y-16742650D01*
X13460658Y-16742650D02*
X13441610Y-16752174D01*
X13441610Y-16752174D02*
X13432087Y-16761698D01*
X13641610Y-16875984D02*
X13622563Y-16866460D01*
X13622563Y-16866460D02*
X13613039Y-16856936D01*
X13613039Y-16856936D02*
X13603515Y-16837889D01*
X13603515Y-16837889D02*
X13603515Y-16780746D01*
X13603515Y-16780746D02*
X13613039Y-16761698D01*
X13613039Y-16761698D02*
X13622563Y-16752174D01*
X13622563Y-16752174D02*
X13641610Y-16742650D01*
X13641610Y-16742650D02*
X13670182Y-16742650D01*
X13670182Y-16742650D02*
X13689230Y-16752174D01*
X13689230Y-16752174D02*
X13698753Y-16761698D01*
X13698753Y-16761698D02*
X13708277Y-16780746D01*
X13708277Y-16780746D02*
X13708277Y-16837889D01*
X13708277Y-16837889D02*
X13698753Y-16856936D01*
X13698753Y-16856936D02*
X13689230Y-16866460D01*
X13689230Y-16866460D02*
X13670182Y-16875984D01*
X13670182Y-16875984D02*
X13641610Y-16875984D01*
X13822563Y-16875984D02*
X13803515Y-16866460D01*
X13803515Y-16866460D02*
X13793991Y-16847412D01*
X13793991Y-16847412D02*
X13793991Y-16675984D01*
X13974944Y-16866460D02*
X13955896Y-16875984D01*
X13955896Y-16875984D02*
X13917801Y-16875984D01*
X13917801Y-16875984D02*
X13898753Y-16866460D01*
X13898753Y-16866460D02*
X13889230Y-16847412D01*
X13889230Y-16847412D02*
X13889230Y-16771222D01*
X13889230Y-16771222D02*
X13898753Y-16752174D01*
X13898753Y-16752174D02*
X13917801Y-16742650D01*
X13917801Y-16742650D02*
X13955896Y-16742650D01*
X13955896Y-16742650D02*
X13974944Y-16752174D01*
X13974944Y-16752174D02*
X13984468Y-16771222D01*
X13984468Y-16771222D02*
X13984468Y-16790270D01*
X13984468Y-16790270D02*
X13889230Y-16809317D01*
X14060658Y-16866460D02*
X14079706Y-16875984D01*
X14079706Y-16875984D02*
X14117801Y-16875984D01*
X14117801Y-16875984D02*
X14136849Y-16866460D01*
X14136849Y-16866460D02*
X14146372Y-16847412D01*
X14146372Y-16847412D02*
X14146372Y-16837889D01*
X14146372Y-16837889D02*
X14136849Y-16818841D01*
X14136849Y-16818841D02*
X14117801Y-16809317D01*
X14117801Y-16809317D02*
X14089230Y-16809317D01*
X14089230Y-16809317D02*
X14070182Y-16799793D01*
X14070182Y-16799793D02*
X14060658Y-16780746D01*
X14060658Y-16780746D02*
X14060658Y-16771222D01*
X14060658Y-16771222D02*
X14070182Y-16752174D01*
X14070182Y-16752174D02*
X14089230Y-16742650D01*
X14089230Y-16742650D02*
X14117801Y-16742650D01*
X14117801Y-16742650D02*
X14136849Y-16752174D01*
X14213039Y-16952174D02*
X14222563Y-16942650D01*
X14222563Y-16942650D02*
X14241611Y-16914079D01*
X14241611Y-16914079D02*
X14251134Y-16895031D01*
X14251134Y-16895031D02*
X14260658Y-16866460D01*
X14260658Y-16866460D02*
X14270182Y-16818841D01*
X14270182Y-16818841D02*
X14270182Y-16780746D01*
X14270182Y-16780746D02*
X14260658Y-16733127D01*
X14260658Y-16733127D02*
X14251134Y-16704555D01*
X14251134Y-16704555D02*
X14241611Y-16685508D01*
X14241611Y-16685508D02*
X14222563Y-16656936D01*
X14222563Y-16656936D02*
X14213039Y-16647412D01*
D14*
X9182500Y-17113500D02*
X9247500Y-17048500D01*
X9182500Y-16983500D01*
X9117500Y-17048500D01*
X9182500Y-17113500D01*
D11*
X9613039Y-17139984D02*
X9498753Y-17139984D01*
X9555896Y-17139984D02*
X9555896Y-16939984D01*
X9555896Y-16939984D02*
X9536848Y-16968555D01*
X9536848Y-16968555D02*
X9517801Y-16987603D01*
X9517801Y-16987603D02*
X9498753Y-16997127D01*
X9698753Y-17120936D02*
X9708277Y-17130460D01*
X9708277Y-17130460D02*
X9698753Y-17139984D01*
X9698753Y-17139984D02*
X9689229Y-17130460D01*
X9689229Y-17130460D02*
X9698753Y-17120936D01*
X9698753Y-17120936D02*
X9698753Y-17139984D01*
X9774944Y-16939984D02*
X9898753Y-16939984D01*
X9898753Y-16939984D02*
X9832086Y-17016174D01*
X9832086Y-17016174D02*
X9860658Y-17016174D01*
X9860658Y-17016174D02*
X9879705Y-17025698D01*
X9879705Y-17025698D02*
X9889229Y-17035222D01*
X9889229Y-17035222D02*
X9898753Y-17054270D01*
X9898753Y-17054270D02*
X9898753Y-17101889D01*
X9898753Y-17101889D02*
X9889229Y-17120936D01*
X9889229Y-17120936D02*
X9879705Y-17130460D01*
X9879705Y-17130460D02*
X9860658Y-17139984D01*
X9860658Y-17139984D02*
X9803515Y-17139984D01*
X9803515Y-17139984D02*
X9784467Y-17130460D01*
X9784467Y-17130460D02*
X9774944Y-17120936D01*
X10022563Y-16939984D02*
X10041610Y-16939984D01*
X10041610Y-16939984D02*
X10060658Y-16949508D01*
X10060658Y-16949508D02*
X10070182Y-16959031D01*
X10070182Y-16959031D02*
X10079705Y-16978079D01*
X10079705Y-16978079D02*
X10089229Y-17016174D01*
X10089229Y-17016174D02*
X10089229Y-17063793D01*
X10089229Y-17063793D02*
X10079705Y-17101889D01*
X10079705Y-17101889D02*
X10070182Y-17120936D01*
X10070182Y-17120936D02*
X10060658Y-17130460D01*
X10060658Y-17130460D02*
X10041610Y-17139984D01*
X10041610Y-17139984D02*
X10022563Y-17139984D01*
X10022563Y-17139984D02*
X10003515Y-17130460D01*
X10003515Y-17130460D02*
X9993991Y-17120936D01*
X9993991Y-17120936D02*
X9984467Y-17101889D01*
X9984467Y-17101889D02*
X9974944Y-17063793D01*
X9974944Y-17063793D02*
X9974944Y-17016174D01*
X9974944Y-17016174D02*
X9984467Y-16978079D01*
X9984467Y-16978079D02*
X9993991Y-16959031D01*
X9993991Y-16959031D02*
X10003515Y-16949508D01*
X10003515Y-16949508D02*
X10022563Y-16939984D01*
X10213039Y-16939984D02*
X10232086Y-16939984D01*
X10232086Y-16939984D02*
X10251134Y-16949508D01*
X10251134Y-16949508D02*
X10260658Y-16959031D01*
X10260658Y-16959031D02*
X10270182Y-16978079D01*
X10270182Y-16978079D02*
X10279705Y-17016174D01*
X10279705Y-17016174D02*
X10279705Y-17063793D01*
X10279705Y-17063793D02*
X10270182Y-17101889D01*
X10270182Y-17101889D02*
X10260658Y-17120936D01*
X10260658Y-17120936D02*
X10251134Y-17130460D01*
X10251134Y-17130460D02*
X10232086Y-17139984D01*
X10232086Y-17139984D02*
X10213039Y-17139984D01*
X10213039Y-17139984D02*
X10193991Y-17130460D01*
X10193991Y-17130460D02*
X10184467Y-17120936D01*
X10184467Y-17120936D02*
X10174944Y-17101889D01*
X10174944Y-17101889D02*
X10165420Y-17063793D01*
X10165420Y-17063793D02*
X10165420Y-17016174D01*
X10165420Y-17016174D02*
X10174944Y-16978079D01*
X10174944Y-16978079D02*
X10184467Y-16959031D01*
X10184467Y-16959031D02*
X10193991Y-16949508D01*
X10193991Y-16949508D02*
X10213039Y-16939984D01*
X10365420Y-17139984D02*
X10365420Y-17006650D01*
X10365420Y-17025698D02*
X10374944Y-17016174D01*
X10374944Y-17016174D02*
X10393991Y-17006650D01*
X10393991Y-17006650D02*
X10422563Y-17006650D01*
X10422563Y-17006650D02*
X10441610Y-17016174D01*
X10441610Y-17016174D02*
X10451134Y-17035222D01*
X10451134Y-17035222D02*
X10451134Y-17139984D01*
X10451134Y-17035222D02*
X10460658Y-17016174D01*
X10460658Y-17016174D02*
X10479705Y-17006650D01*
X10479705Y-17006650D02*
X10508277Y-17006650D01*
X10508277Y-17006650D02*
X10527325Y-17016174D01*
X10527325Y-17016174D02*
X10536848Y-17035222D01*
X10536848Y-17035222D02*
X10536848Y-17139984D01*
X10632086Y-17139984D02*
X10632086Y-17006650D01*
X10632086Y-17025698D02*
X10641610Y-17016174D01*
X10641610Y-17016174D02*
X10660658Y-17006650D01*
X10660658Y-17006650D02*
X10689229Y-17006650D01*
X10689229Y-17006650D02*
X10708277Y-17016174D01*
X10708277Y-17016174D02*
X10717801Y-17035222D01*
X10717801Y-17035222D02*
X10717801Y-17139984D01*
X10717801Y-17035222D02*
X10727325Y-17016174D01*
X10727325Y-17016174D02*
X10746372Y-17006650D01*
X10746372Y-17006650D02*
X10774944Y-17006650D01*
X10774944Y-17006650D02*
X10793991Y-17016174D01*
X10793991Y-17016174D02*
X10803515Y-17035222D01*
X10803515Y-17035222D02*
X10803515Y-17139984D01*
X11193991Y-16930460D02*
X11022563Y-17187603D01*
X11451134Y-16939984D02*
X11470182Y-16939984D01*
X11470182Y-16939984D02*
X11489229Y-16949508D01*
X11489229Y-16949508D02*
X11498753Y-16959031D01*
X11498753Y-16959031D02*
X11508277Y-16978079D01*
X11508277Y-16978079D02*
X11517801Y-17016174D01*
X11517801Y-17016174D02*
X11517801Y-17063793D01*
X11517801Y-17063793D02*
X11508277Y-17101889D01*
X11508277Y-17101889D02*
X11498753Y-17120936D01*
X11498753Y-17120936D02*
X11489229Y-17130460D01*
X11489229Y-17130460D02*
X11470182Y-17139984D01*
X11470182Y-17139984D02*
X11451134Y-17139984D01*
X11451134Y-17139984D02*
X11432086Y-17130460D01*
X11432086Y-17130460D02*
X11422563Y-17120936D01*
X11422563Y-17120936D02*
X11413039Y-17101889D01*
X11413039Y-17101889D02*
X11403515Y-17063793D01*
X11403515Y-17063793D02*
X11403515Y-17016174D01*
X11403515Y-17016174D02*
X11413039Y-16978079D01*
X11413039Y-16978079D02*
X11422563Y-16959031D01*
X11422563Y-16959031D02*
X11432086Y-16949508D01*
X11432086Y-16949508D02*
X11451134Y-16939984D01*
X11603515Y-17120936D02*
X11613039Y-17130460D01*
X11613039Y-17130460D02*
X11603515Y-17139984D01*
X11603515Y-17139984D02*
X11593991Y-17130460D01*
X11593991Y-17130460D02*
X11603515Y-17120936D01*
X11603515Y-17120936D02*
X11603515Y-17139984D01*
X11736848Y-16939984D02*
X11755896Y-16939984D01*
X11755896Y-16939984D02*
X11774944Y-16949508D01*
X11774944Y-16949508D02*
X11784467Y-16959031D01*
X11784467Y-16959031D02*
X11793991Y-16978079D01*
X11793991Y-16978079D02*
X11803515Y-17016174D01*
X11803515Y-17016174D02*
X11803515Y-17063793D01*
X11803515Y-17063793D02*
X11793991Y-17101889D01*
X11793991Y-17101889D02*
X11784467Y-17120936D01*
X11784467Y-17120936D02*
X11774944Y-17130460D01*
X11774944Y-17130460D02*
X11755896Y-17139984D01*
X11755896Y-17139984D02*
X11736848Y-17139984D01*
X11736848Y-17139984D02*
X11717801Y-17130460D01*
X11717801Y-17130460D02*
X11708277Y-17120936D01*
X11708277Y-17120936D02*
X11698753Y-17101889D01*
X11698753Y-17101889D02*
X11689229Y-17063793D01*
X11689229Y-17063793D02*
X11689229Y-17016174D01*
X11689229Y-17016174D02*
X11698753Y-16978079D01*
X11698753Y-16978079D02*
X11708277Y-16959031D01*
X11708277Y-16959031D02*
X11717801Y-16949508D01*
X11717801Y-16949508D02*
X11736848Y-16939984D01*
X11984467Y-16939984D02*
X11889229Y-16939984D01*
X11889229Y-16939984D02*
X11879706Y-17035222D01*
X11879706Y-17035222D02*
X11889229Y-17025698D01*
X11889229Y-17025698D02*
X11908277Y-17016174D01*
X11908277Y-17016174D02*
X11955896Y-17016174D01*
X11955896Y-17016174D02*
X11974944Y-17025698D01*
X11974944Y-17025698D02*
X11984467Y-17035222D01*
X11984467Y-17035222D02*
X11993991Y-17054270D01*
X11993991Y-17054270D02*
X11993991Y-17101889D01*
X11993991Y-17101889D02*
X11984467Y-17120936D01*
X11984467Y-17120936D02*
X11974944Y-17130460D01*
X11974944Y-17130460D02*
X11955896Y-17139984D01*
X11955896Y-17139984D02*
X11908277Y-17139984D01*
X11908277Y-17139984D02*
X11889229Y-17130460D01*
X11889229Y-17130460D02*
X11879706Y-17120936D01*
X12184467Y-17139984D02*
X12070182Y-17139984D01*
X12127325Y-17139984D02*
X12127325Y-16939984D01*
X12127325Y-16939984D02*
X12108277Y-16968555D01*
X12108277Y-16968555D02*
X12089229Y-16987603D01*
X12089229Y-16987603D02*
X12070182Y-16997127D01*
X12260658Y-16959031D02*
X12270182Y-16949508D01*
X12270182Y-16949508D02*
X12289229Y-16939984D01*
X12289229Y-16939984D02*
X12336848Y-16939984D01*
X12336848Y-16939984D02*
X12355896Y-16949508D01*
X12355896Y-16949508D02*
X12365420Y-16959031D01*
X12365420Y-16959031D02*
X12374944Y-16978079D01*
X12374944Y-16978079D02*
X12374944Y-16997127D01*
X12374944Y-16997127D02*
X12365420Y-17025698D01*
X12365420Y-17025698D02*
X12251134Y-17139984D01*
X12251134Y-17139984D02*
X12374944Y-17139984D01*
X12451134Y-16939984D02*
X12451134Y-16978079D01*
X12527325Y-16939984D02*
X12527325Y-16978079D01*
X12822563Y-17216174D02*
X12813039Y-17206650D01*
X12813039Y-17206650D02*
X12793991Y-17178079D01*
X12793991Y-17178079D02*
X12784468Y-17159031D01*
X12784468Y-17159031D02*
X12774944Y-17130460D01*
X12774944Y-17130460D02*
X12765420Y-17082841D01*
X12765420Y-17082841D02*
X12765420Y-17044746D01*
X12765420Y-17044746D02*
X12774944Y-16997127D01*
X12774944Y-16997127D02*
X12784468Y-16968555D01*
X12784468Y-16968555D02*
X12793991Y-16949508D01*
X12793991Y-16949508D02*
X12813039Y-16920936D01*
X12813039Y-16920936D02*
X12822563Y-16911412D01*
X13003515Y-17139984D02*
X12889229Y-17139984D01*
X12946372Y-17139984D02*
X12946372Y-16939984D01*
X12946372Y-16939984D02*
X12927325Y-16968555D01*
X12927325Y-16968555D02*
X12908277Y-16987603D01*
X12908277Y-16987603D02*
X12889229Y-16997127D01*
X13127325Y-16939984D02*
X13146372Y-16939984D01*
X13146372Y-16939984D02*
X13165420Y-16949508D01*
X13165420Y-16949508D02*
X13174944Y-16959031D01*
X13174944Y-16959031D02*
X13184468Y-16978079D01*
X13184468Y-16978079D02*
X13193991Y-17016174D01*
X13193991Y-17016174D02*
X13193991Y-17063793D01*
X13193991Y-17063793D02*
X13184468Y-17101889D01*
X13184468Y-17101889D02*
X13174944Y-17120936D01*
X13174944Y-17120936D02*
X13165420Y-17130460D01*
X13165420Y-17130460D02*
X13146372Y-17139984D01*
X13146372Y-17139984D02*
X13127325Y-17139984D01*
X13127325Y-17139984D02*
X13108277Y-17130460D01*
X13108277Y-17130460D02*
X13098753Y-17120936D01*
X13098753Y-17120936D02*
X13089229Y-17101889D01*
X13089229Y-17101889D02*
X13079706Y-17063793D01*
X13079706Y-17063793D02*
X13079706Y-17016174D01*
X13079706Y-17016174D02*
X13089229Y-16978079D01*
X13089229Y-16978079D02*
X13098753Y-16959031D01*
X13098753Y-16959031D02*
X13108277Y-16949508D01*
X13108277Y-16949508D02*
X13127325Y-16939984D01*
X13432087Y-17139984D02*
X13432087Y-16939984D01*
X13517801Y-17139984D02*
X13517801Y-17035222D01*
X13517801Y-17035222D02*
X13508277Y-17016174D01*
X13508277Y-17016174D02*
X13489230Y-17006650D01*
X13489230Y-17006650D02*
X13460658Y-17006650D01*
X13460658Y-17006650D02*
X13441610Y-17016174D01*
X13441610Y-17016174D02*
X13432087Y-17025698D01*
X13641610Y-17139984D02*
X13622563Y-17130460D01*
X13622563Y-17130460D02*
X13613039Y-17120936D01*
X13613039Y-17120936D02*
X13603515Y-17101889D01*
X13603515Y-17101889D02*
X13603515Y-17044746D01*
X13603515Y-17044746D02*
X13613039Y-17025698D01*
X13613039Y-17025698D02*
X13622563Y-17016174D01*
X13622563Y-17016174D02*
X13641610Y-17006650D01*
X13641610Y-17006650D02*
X13670182Y-17006650D01*
X13670182Y-17006650D02*
X13689230Y-17016174D01*
X13689230Y-17016174D02*
X13698753Y-17025698D01*
X13698753Y-17025698D02*
X13708277Y-17044746D01*
X13708277Y-17044746D02*
X13708277Y-17101889D01*
X13708277Y-17101889D02*
X13698753Y-17120936D01*
X13698753Y-17120936D02*
X13689230Y-17130460D01*
X13689230Y-17130460D02*
X13670182Y-17139984D01*
X13670182Y-17139984D02*
X13641610Y-17139984D01*
X13822563Y-17139984D02*
X13803515Y-17130460D01*
X13803515Y-17130460D02*
X13793991Y-17111412D01*
X13793991Y-17111412D02*
X13793991Y-16939984D01*
X13974944Y-17130460D02*
X13955896Y-17139984D01*
X13955896Y-17139984D02*
X13917801Y-17139984D01*
X13917801Y-17139984D02*
X13898753Y-17130460D01*
X13898753Y-17130460D02*
X13889230Y-17111412D01*
X13889230Y-17111412D02*
X13889230Y-17035222D01*
X13889230Y-17035222D02*
X13898753Y-17016174D01*
X13898753Y-17016174D02*
X13917801Y-17006650D01*
X13917801Y-17006650D02*
X13955896Y-17006650D01*
X13955896Y-17006650D02*
X13974944Y-17016174D01*
X13974944Y-17016174D02*
X13984468Y-17035222D01*
X13984468Y-17035222D02*
X13984468Y-17054270D01*
X13984468Y-17054270D02*
X13889230Y-17073317D01*
X14060658Y-17130460D02*
X14079706Y-17139984D01*
X14079706Y-17139984D02*
X14117801Y-17139984D01*
X14117801Y-17139984D02*
X14136849Y-17130460D01*
X14136849Y-17130460D02*
X14146372Y-17111412D01*
X14146372Y-17111412D02*
X14146372Y-17101889D01*
X14146372Y-17101889D02*
X14136849Y-17082841D01*
X14136849Y-17082841D02*
X14117801Y-17073317D01*
X14117801Y-17073317D02*
X14089230Y-17073317D01*
X14089230Y-17073317D02*
X14070182Y-17063793D01*
X14070182Y-17063793D02*
X14060658Y-17044746D01*
X14060658Y-17044746D02*
X14060658Y-17035222D01*
X14060658Y-17035222D02*
X14070182Y-17016174D01*
X14070182Y-17016174D02*
X14089230Y-17006650D01*
X14089230Y-17006650D02*
X14117801Y-17006650D01*
X14117801Y-17006650D02*
X14136849Y-17016174D01*
X14213039Y-17216174D02*
X14222563Y-17206650D01*
X14222563Y-17206650D02*
X14241611Y-17178079D01*
X14241611Y-17178079D02*
X14251134Y-17159031D01*
X14251134Y-17159031D02*
X14260658Y-17130460D01*
X14260658Y-17130460D02*
X14270182Y-17082841D01*
X14270182Y-17082841D02*
X14270182Y-17044746D01*
X14270182Y-17044746D02*
X14260658Y-16997127D01*
X14260658Y-16997127D02*
X14251134Y-16968555D01*
X14251134Y-16968555D02*
X14241611Y-16949508D01*
X14241611Y-16949508D02*
X14222563Y-16920936D01*
X14222563Y-16920936D02*
X14213039Y-16911412D01*
X9047500Y-17212500D02*
X9247500Y-17412500D01*
X9247500Y-17212500D02*
X9047500Y-17412500D01*
X9247500Y-17312500D02*
G75*
G02*
X9047500Y-17312500I-100000J0D01*
G01*
X9047500Y-17312500D02*
G75*
G02*
X9247500Y-17312500I100000J0D01*
G01*
X9489229Y-17203984D02*
X9613039Y-17203984D01*
X9613039Y-17203984D02*
X9546372Y-17280174D01*
X9546372Y-17280174D02*
X9574944Y-17280174D01*
X9574944Y-17280174D02*
X9593991Y-17289698D01*
X9593991Y-17289698D02*
X9603515Y-17299222D01*
X9603515Y-17299222D02*
X9613039Y-17318270D01*
X9613039Y-17318270D02*
X9613039Y-17365889D01*
X9613039Y-17365889D02*
X9603515Y-17384936D01*
X9603515Y-17384936D02*
X9593991Y-17394460D01*
X9593991Y-17394460D02*
X9574944Y-17403984D01*
X9574944Y-17403984D02*
X9517801Y-17403984D01*
X9517801Y-17403984D02*
X9498753Y-17394460D01*
X9498753Y-17394460D02*
X9489229Y-17384936D01*
X9698753Y-17384936D02*
X9708277Y-17394460D01*
X9708277Y-17394460D02*
X9698753Y-17403984D01*
X9698753Y-17403984D02*
X9689229Y-17394460D01*
X9689229Y-17394460D02*
X9698753Y-17384936D01*
X9698753Y-17384936D02*
X9698753Y-17403984D01*
X9898753Y-17403984D02*
X9784467Y-17403984D01*
X9841610Y-17403984D02*
X9841610Y-17203984D01*
X9841610Y-17203984D02*
X9822563Y-17232555D01*
X9822563Y-17232555D02*
X9803515Y-17251603D01*
X9803515Y-17251603D02*
X9784467Y-17261127D01*
X9965420Y-17203984D02*
X10098753Y-17203984D01*
X10098753Y-17203984D02*
X10013039Y-17403984D01*
X10270182Y-17203984D02*
X10174944Y-17203984D01*
X10174944Y-17203984D02*
X10165420Y-17299222D01*
X10165420Y-17299222D02*
X10174944Y-17289698D01*
X10174944Y-17289698D02*
X10193991Y-17280174D01*
X10193991Y-17280174D02*
X10241610Y-17280174D01*
X10241610Y-17280174D02*
X10260658Y-17289698D01*
X10260658Y-17289698D02*
X10270182Y-17299222D01*
X10270182Y-17299222D02*
X10279705Y-17318270D01*
X10279705Y-17318270D02*
X10279705Y-17365889D01*
X10279705Y-17365889D02*
X10270182Y-17384936D01*
X10270182Y-17384936D02*
X10260658Y-17394460D01*
X10260658Y-17394460D02*
X10241610Y-17403984D01*
X10241610Y-17403984D02*
X10193991Y-17403984D01*
X10193991Y-17403984D02*
X10174944Y-17394460D01*
X10174944Y-17394460D02*
X10165420Y-17384936D01*
X10365420Y-17403984D02*
X10365420Y-17270650D01*
X10365420Y-17289698D02*
X10374944Y-17280174D01*
X10374944Y-17280174D02*
X10393991Y-17270650D01*
X10393991Y-17270650D02*
X10422563Y-17270650D01*
X10422563Y-17270650D02*
X10441610Y-17280174D01*
X10441610Y-17280174D02*
X10451134Y-17299222D01*
X10451134Y-17299222D02*
X10451134Y-17403984D01*
X10451134Y-17299222D02*
X10460658Y-17280174D01*
X10460658Y-17280174D02*
X10479705Y-17270650D01*
X10479705Y-17270650D02*
X10508277Y-17270650D01*
X10508277Y-17270650D02*
X10527325Y-17280174D01*
X10527325Y-17280174D02*
X10536848Y-17299222D01*
X10536848Y-17299222D02*
X10536848Y-17403984D01*
X10632086Y-17403984D02*
X10632086Y-17270650D01*
X10632086Y-17289698D02*
X10641610Y-17280174D01*
X10641610Y-17280174D02*
X10660658Y-17270650D01*
X10660658Y-17270650D02*
X10689229Y-17270650D01*
X10689229Y-17270650D02*
X10708277Y-17280174D01*
X10708277Y-17280174D02*
X10717801Y-17299222D01*
X10717801Y-17299222D02*
X10717801Y-17403984D01*
X10717801Y-17299222D02*
X10727325Y-17280174D01*
X10727325Y-17280174D02*
X10746372Y-17270650D01*
X10746372Y-17270650D02*
X10774944Y-17270650D01*
X10774944Y-17270650D02*
X10793991Y-17280174D01*
X10793991Y-17280174D02*
X10803515Y-17299222D01*
X10803515Y-17299222D02*
X10803515Y-17403984D01*
X11193991Y-17194460D02*
X11022563Y-17451603D01*
X11451134Y-17203984D02*
X11470182Y-17203984D01*
X11470182Y-17203984D02*
X11489229Y-17213508D01*
X11489229Y-17213508D02*
X11498753Y-17223031D01*
X11498753Y-17223031D02*
X11508277Y-17242079D01*
X11508277Y-17242079D02*
X11517801Y-17280174D01*
X11517801Y-17280174D02*
X11517801Y-17327793D01*
X11517801Y-17327793D02*
X11508277Y-17365889D01*
X11508277Y-17365889D02*
X11498753Y-17384936D01*
X11498753Y-17384936D02*
X11489229Y-17394460D01*
X11489229Y-17394460D02*
X11470182Y-17403984D01*
X11470182Y-17403984D02*
X11451134Y-17403984D01*
X11451134Y-17403984D02*
X11432086Y-17394460D01*
X11432086Y-17394460D02*
X11422563Y-17384936D01*
X11422563Y-17384936D02*
X11413039Y-17365889D01*
X11413039Y-17365889D02*
X11403515Y-17327793D01*
X11403515Y-17327793D02*
X11403515Y-17280174D01*
X11403515Y-17280174D02*
X11413039Y-17242079D01*
X11413039Y-17242079D02*
X11422563Y-17223031D01*
X11422563Y-17223031D02*
X11432086Y-17213508D01*
X11432086Y-17213508D02*
X11451134Y-17203984D01*
X11603515Y-17384936D02*
X11613039Y-17394460D01*
X11613039Y-17394460D02*
X11603515Y-17403984D01*
X11603515Y-17403984D02*
X11593991Y-17394460D01*
X11593991Y-17394460D02*
X11603515Y-17384936D01*
X11603515Y-17384936D02*
X11603515Y-17403984D01*
X11803515Y-17403984D02*
X11689229Y-17403984D01*
X11746372Y-17403984D02*
X11746372Y-17203984D01*
X11746372Y-17203984D02*
X11727325Y-17232555D01*
X11727325Y-17232555D02*
X11708277Y-17251603D01*
X11708277Y-17251603D02*
X11689229Y-17261127D01*
X11879706Y-17223031D02*
X11889229Y-17213508D01*
X11889229Y-17213508D02*
X11908277Y-17203984D01*
X11908277Y-17203984D02*
X11955896Y-17203984D01*
X11955896Y-17203984D02*
X11974944Y-17213508D01*
X11974944Y-17213508D02*
X11984467Y-17223031D01*
X11984467Y-17223031D02*
X11993991Y-17242079D01*
X11993991Y-17242079D02*
X11993991Y-17261127D01*
X11993991Y-17261127D02*
X11984467Y-17289698D01*
X11984467Y-17289698D02*
X11870182Y-17403984D01*
X11870182Y-17403984D02*
X11993991Y-17403984D01*
X12174944Y-17203984D02*
X12079706Y-17203984D01*
X12079706Y-17203984D02*
X12070182Y-17299222D01*
X12070182Y-17299222D02*
X12079706Y-17289698D01*
X12079706Y-17289698D02*
X12098753Y-17280174D01*
X12098753Y-17280174D02*
X12146372Y-17280174D01*
X12146372Y-17280174D02*
X12165420Y-17289698D01*
X12165420Y-17289698D02*
X12174944Y-17299222D01*
X12174944Y-17299222D02*
X12184467Y-17318270D01*
X12184467Y-17318270D02*
X12184467Y-17365889D01*
X12184467Y-17365889D02*
X12174944Y-17384936D01*
X12174944Y-17384936D02*
X12165420Y-17394460D01*
X12165420Y-17394460D02*
X12146372Y-17403984D01*
X12146372Y-17403984D02*
X12098753Y-17403984D01*
X12098753Y-17403984D02*
X12079706Y-17394460D01*
X12079706Y-17394460D02*
X12070182Y-17384936D01*
X12308277Y-17203984D02*
X12327325Y-17203984D01*
X12327325Y-17203984D02*
X12346372Y-17213508D01*
X12346372Y-17213508D02*
X12355896Y-17223031D01*
X12355896Y-17223031D02*
X12365420Y-17242079D01*
X12365420Y-17242079D02*
X12374944Y-17280174D01*
X12374944Y-17280174D02*
X12374944Y-17327793D01*
X12374944Y-17327793D02*
X12365420Y-17365889D01*
X12365420Y-17365889D02*
X12355896Y-17384936D01*
X12355896Y-17384936D02*
X12346372Y-17394460D01*
X12346372Y-17394460D02*
X12327325Y-17403984D01*
X12327325Y-17403984D02*
X12308277Y-17403984D01*
X12308277Y-17403984D02*
X12289229Y-17394460D01*
X12289229Y-17394460D02*
X12279706Y-17384936D01*
X12279706Y-17384936D02*
X12270182Y-17365889D01*
X12270182Y-17365889D02*
X12260658Y-17327793D01*
X12260658Y-17327793D02*
X12260658Y-17280174D01*
X12260658Y-17280174D02*
X12270182Y-17242079D01*
X12270182Y-17242079D02*
X12279706Y-17223031D01*
X12279706Y-17223031D02*
X12289229Y-17213508D01*
X12289229Y-17213508D02*
X12308277Y-17203984D01*
X12451134Y-17203984D02*
X12451134Y-17242079D01*
X12527325Y-17203984D02*
X12527325Y-17242079D01*
X12822563Y-17480174D02*
X12813039Y-17470650D01*
X12813039Y-17470650D02*
X12793991Y-17442079D01*
X12793991Y-17442079D02*
X12784468Y-17423031D01*
X12784468Y-17423031D02*
X12774944Y-17394460D01*
X12774944Y-17394460D02*
X12765420Y-17346841D01*
X12765420Y-17346841D02*
X12765420Y-17308746D01*
X12765420Y-17308746D02*
X12774944Y-17261127D01*
X12774944Y-17261127D02*
X12784468Y-17232555D01*
X12784468Y-17232555D02*
X12793991Y-17213508D01*
X12793991Y-17213508D02*
X12813039Y-17184936D01*
X12813039Y-17184936D02*
X12822563Y-17175412D01*
X12889229Y-17223031D02*
X12898753Y-17213508D01*
X12898753Y-17213508D02*
X12917801Y-17203984D01*
X12917801Y-17203984D02*
X12965420Y-17203984D01*
X12965420Y-17203984D02*
X12984468Y-17213508D01*
X12984468Y-17213508D02*
X12993991Y-17223031D01*
X12993991Y-17223031D02*
X13003515Y-17242079D01*
X13003515Y-17242079D02*
X13003515Y-17261127D01*
X13003515Y-17261127D02*
X12993991Y-17289698D01*
X12993991Y-17289698D02*
X12879706Y-17403984D01*
X12879706Y-17403984D02*
X13003515Y-17403984D01*
X13241610Y-17403984D02*
X13241610Y-17203984D01*
X13327325Y-17403984D02*
X13327325Y-17299222D01*
X13327325Y-17299222D02*
X13317801Y-17280174D01*
X13317801Y-17280174D02*
X13298753Y-17270650D01*
X13298753Y-17270650D02*
X13270182Y-17270650D01*
X13270182Y-17270650D02*
X13251134Y-17280174D01*
X13251134Y-17280174D02*
X13241610Y-17289698D01*
X13451134Y-17403984D02*
X13432087Y-17394460D01*
X13432087Y-17394460D02*
X13422563Y-17384936D01*
X13422563Y-17384936D02*
X13413039Y-17365889D01*
X13413039Y-17365889D02*
X13413039Y-17308746D01*
X13413039Y-17308746D02*
X13422563Y-17289698D01*
X13422563Y-17289698D02*
X13432087Y-17280174D01*
X13432087Y-17280174D02*
X13451134Y-17270650D01*
X13451134Y-17270650D02*
X13479706Y-17270650D01*
X13479706Y-17270650D02*
X13498753Y-17280174D01*
X13498753Y-17280174D02*
X13508277Y-17289698D01*
X13508277Y-17289698D02*
X13517801Y-17308746D01*
X13517801Y-17308746D02*
X13517801Y-17365889D01*
X13517801Y-17365889D02*
X13508277Y-17384936D01*
X13508277Y-17384936D02*
X13498753Y-17394460D01*
X13498753Y-17394460D02*
X13479706Y-17403984D01*
X13479706Y-17403984D02*
X13451134Y-17403984D01*
X13632087Y-17403984D02*
X13613039Y-17394460D01*
X13613039Y-17394460D02*
X13603515Y-17375412D01*
X13603515Y-17375412D02*
X13603515Y-17203984D01*
X13784468Y-17394460D02*
X13765420Y-17403984D01*
X13765420Y-17403984D02*
X13727325Y-17403984D01*
X13727325Y-17403984D02*
X13708277Y-17394460D01*
X13708277Y-17394460D02*
X13698753Y-17375412D01*
X13698753Y-17375412D02*
X13698753Y-17299222D01*
X13698753Y-17299222D02*
X13708277Y-17280174D01*
X13708277Y-17280174D02*
X13727325Y-17270650D01*
X13727325Y-17270650D02*
X13765420Y-17270650D01*
X13765420Y-17270650D02*
X13784468Y-17280174D01*
X13784468Y-17280174D02*
X13793991Y-17299222D01*
X13793991Y-17299222D02*
X13793991Y-17318270D01*
X13793991Y-17318270D02*
X13698753Y-17337317D01*
X13870182Y-17394460D02*
X13889230Y-17403984D01*
X13889230Y-17403984D02*
X13927325Y-17403984D01*
X13927325Y-17403984D02*
X13946372Y-17394460D01*
X13946372Y-17394460D02*
X13955896Y-17375412D01*
X13955896Y-17375412D02*
X13955896Y-17365889D01*
X13955896Y-17365889D02*
X13946372Y-17346841D01*
X13946372Y-17346841D02*
X13927325Y-17337317D01*
X13927325Y-17337317D02*
X13898753Y-17337317D01*
X13898753Y-17337317D02*
X13879706Y-17327793D01*
X13879706Y-17327793D02*
X13870182Y-17308746D01*
X13870182Y-17308746D02*
X13870182Y-17299222D01*
X13870182Y-17299222D02*
X13879706Y-17280174D01*
X13879706Y-17280174D02*
X13898753Y-17270650D01*
X13898753Y-17270650D02*
X13927325Y-17270650D01*
X13927325Y-17270650D02*
X13946372Y-17280174D01*
X14022563Y-17480174D02*
X14032087Y-17470650D01*
X14032087Y-17470650D02*
X14051134Y-17442079D01*
X14051134Y-17442079D02*
X14060658Y-17423031D01*
X14060658Y-17423031D02*
X14070182Y-17394460D01*
X14070182Y-17394460D02*
X14079706Y-17346841D01*
X14079706Y-17346841D02*
X14079706Y-17308746D01*
X14079706Y-17308746D02*
X14070182Y-17261127D01*
X14070182Y-17261127D02*
X14060658Y-17232555D01*
X14060658Y-17232555D02*
X14051134Y-17213508D01*
X14051134Y-17213508D02*
X14032087Y-17184936D01*
X14032087Y-17184936D02*
X14022563Y-17175412D01*
M02*
